SplineFontDB: 3.2
FontName: MFEKSans-Thin
FullName: MFEK Sans Thin
FamilyName: MFEK Sans Thin
Weight: Thin
Copyright: 
Version: 0.1
ItalicAngle: 0
UnderlinePosition: -200
UnderlineWidth: 100
Ascent: 1600
Descent: 400
InvalidEm: 0
LayerCount: 2
Layer: 0 0 "Back" 1
Layer: 1 0 "Fore" 0
XUID: [1021 31 -699969567 16487490]
FSType: 0
OS2Version: 0
OS2_WeightWidthSlopeOnly: 0
OS2_UseTypoMetrics: 1
CreationTime: 1460762150
ModificationTime: 1695053909
PfmFamily: 33
TTFWeight: 100
TTFWidth: 5
LineGap: 0
VLineGap: 0
OS2TypoAscent: 2500
OS2TypoAOffset: 0
OS2TypoDescent: -850
OS2TypoDOffset: 0
OS2TypoLinegap: 0
OS2WinAscent: 2500
OS2WinAOffset: 0
OS2WinDescent: 850
OS2WinDOffset: 0
HheadAscent: 2500
HheadAOffset: 0
HheadDescent: -850
HheadDOffset: 0
OS2CapHeight: 1500
OS2XHeight: 1040
OS2FamilyClass: 2053
OS2Vendor: 'it* '
OS2UnicodeRanges: 00000001.00000000.00000000.00000000
Lookup: 258 0 0 "kerning yeah boi" { "say cheese" [300,0,4] } ['kern' ('DFLT' <'dflt' > 'grek' <'dflt' > 'latn' <'dflt' > ) ]
MarkAttachClasses: 1
DEI: 91125
KernClass2: 30 23 "say cheese"
 73 A Agrave Aacute Acircumflex Atilde Adieresis Aring Amacron Abreve Aogonek
 96 D O Ograve Oacute Ocircumflex Otilde Odieresis Oslash Dcaron Dcroat Omacron Obreve Ohungarumlaut
 81 E AE Egrave Eacute Ecircumflex Edieresis Emacron Ebreve Edotaccent Eogonek Ecaron
 1 F
 39 G Gcircumflex Gbreve Gdotaccent uni0122
 104 J U Ugrave Uacute Ucircumflex Udieresis IJ Jcircumflex Utilde Umacron Ubreve Uring Uhungarumlaut Uogonek
 11 K X uni0136
 23 L Lacute uni013B Lslash
 1 P
 1 Q
 23 R Racute uni0156 Rcaron
 36 S Sacute Scircumflex Scedilla Scaron
 21 T uni0162 Tcaron Tbar
 1 V
 53 W Wcircumflex Wgrave Wacute Wdieresis uni1E86 uni1E88
 30 Y Ycircumflex Ydieresis Ygrave
 26 Z Zacute Zdotaccent Zcaron
 73 a agrave aacute acircumflex atilde adieresis aring amacron abreve aogonek

StartChar: ampersand
Encoding: 38 38 0
Width: 1280
VWidth: 1920
Flags: HMW
LayerCount: 2
Fore
SplineSet
1119 16 m 258
 558 734 l 258
 426 903 340 1030 340 1163 c 256
 340 1303 438 1435 645 1435 c 256
 832 1435 970 1343 970 1173 c 256
 970 990 845 868 637 776 c 256
 383 664 102 627 102 443 c 256
 102 354 127 294 176 219 c 258
 229 139 l 258
 285 54 406 -5 531 -5 c 256
 773 -5 992 245 1119 634 c 256
 1123 645 1127 653 1138 653 c 258
 1139 653 l 258
 1150 653 1154 645 1149 631 c 256
 1014 226 799 -35 531 -35 c 256
 395 -35 268 15 199 119 c 258
 146 199 l 258
 93 279 66 347 66 443 c 256
 66 652 379 695 617 806 c 256
 837 908 935 1012 935 1173 c 256
 935 1313 822 1405 645 1405 c 256
 468 1405 375 1292 375 1163 c 256
 375 1044 458 918 593 744 c 258
 1156 21 l 258
 1166 9 1158 -3 1146 -3 c 262
 1145 -3 l 262
 1133 -3 1128 3 1119 16 c 258
EndSplineSet
EndChar

StartChar: period
Encoding: 46 46 1
Width: 540
VWidth: 1920
Flags: HMW
LayerCount: 2
Fore
SplineSet
272 -3 m 258
 268 -3 l 258
 255 -3 247 6 247 18 c 258
 247 192 l 258
 247 204 255 213 268 213 c 258
 272 213 l 258
 285 213 293 204 293 192 c 258
 293 18 l 258
 293 6 285 -3 272 -3 c 258
EndSplineSet
EndChar

StartChar: zero
Encoding: 48 48 2
Width: 1150
VWidth: 1920
Flags: HMW
LayerCount: 2
Fore
SplineSet
180 488 m 258
 180 913 l 258
 180 1239 293 1435 575 1435 c 256
 857 1435 970 1239 970 913 c 258
 970 488 l 258
 970 162 856 -35 575 -35 c 256
 294 -35 180 162 180 488 c 258
215 488 m 258
 215 190 311 -5 575 -5 c 256
 839 -5 935 190 935 488 c 258
 935 913 l 258
 935 1211 839 1405 575 1405 c 256
 311 1405 215 1211 215 913 c 258
 215 488 l 258
EndSplineSet
EndChar

StartChar: one
Encoding: 49 49 3
Width: 600
VWidth: 1920
Flags: HMW
LayerCount: 2
Fore
SplineSet
291 1400 m 260
 294 1408 296 1420 298 1438 c 260
 299 1446 301 1450 306 1450 c 262
 307 1450 l 262
 313 1450 315 1445 315 1436 c 262
 315 16 l 262
 315 3 312 -3 301 -3 c 262
 300 -3 l 262
 289 -3 285 3 285 16 c 262
 285 1377 l 262
 285 1388 289 1395 291 1400 c 260
EndSplineSet
EndChar

StartChar: two
Encoding: 50 50 4
Width: 1080
VWidth: 1920
Flags: HMW
LayerCount: 2
Fore
SplineSet
162 49 m 258
 162 521 870 638 870 1033 c 258
 870 1068 l 258
 870 1238 766 1405 559 1405 c 256
 309 1405 220 1255 220 1002 c 258
 220 918 l 258
 220 905 214 899 203 899 c 258
 202 899 l 258
 191 899 185 905 185 918 c 258
 185 1002 l 258
 185 1276 282 1435 559 1435 c 256
 786 1435 905 1253 905 1073 c 258
 905 1028 l 258
 905 622 194 486 194 45 c 258
 194 35 l 257
 981 35 l 258
 994 35 1000 30 1000 19 c 258
 1000 16 l 258
 1000 5 994 0 981 0 c 258
 182 0 l 258
 164 0 162 7 162 23 c 258
 162 49 l 258
EndSplineSet
EndChar

StartChar: three
Encoding: 51 51 5
Width: 1100
VWidth: 1920
Flags: HMW
LayerCount: 2
Fore
SplineSet
174 410 m 258
 175 410 l 258
 186 410 190 405 190 392 c 258
 190 327 l 258
 190 107 301 -5 530 -5 c 256
 807 -5 905 142 905 342 c 258
 905 393 l 258
 905 593 757 740 530 740 c 258
 455 740 l 258
 443 740 437 743 437 754 c 258
 437 755 l 258
 437 766 443 770 455 770 c 258
 510 770 l 258
 747 770 850 893 850 1053 c 258
 850 1088 l 258
 850 1278 771 1405 544 1405 c 256
 334 1405 225 1265 225 1052 c 258
 225 968 l 258
 225 955 221 949 211 949 c 258
 210 949 l 258
 199 949 195 955 195 968 c 258
 195 1052 l 258
 195 1286 317 1435 544 1435 c 256
 771 1435 885 1313 885 1083 c 258
 885 1058 l 258
 885 878 767 750 510 750 c 257
 530 760 l 257
 787 760 935 612 935 392 c 258
 935 337 l 258
 935 127 827 -35 530 -35 c 256
 278 -35 160 99 160 327 c 258
 160 392 l 258
 160 405 164 410 174 410 c 258
EndSplineSet
EndChar

StartChar: four
Encoding: 52 52 6
Width: 1045
VWidth: 1920
Flags: HMW
LayerCount: 2
Fore
SplineSet
953 406 m 258
 953 405 l 258
 953 394 947 390 934 390 c 258
 755 390 l 257
 755 16 l 258
 755 3 749 -3 738 -3 c 258
 737 -3 l 258
 726 -3 720 3 720 16 c 258
 720 390 l 257
 86 390 l 258
 63 390 47 395 47 415 c 258
 47 423 l 258
 47 433 51 442 60 454 c 258
 701 1389 l 258
 706 1397 713 1402 730 1402 c 258
 736 1402 l 258
 748 1402 755 1395 755 1381 c 258
 755 420 l 257
 934 420 l 258
 947 420 953 417 953 406 c 258
720 420 m 257
 720 1363 l 257
 75 420 l 257
 720 420 l 257
EndSplineSet
EndChar

StartChar: five
Encoding: 53 53 7
Width: 1100
VWidth: 1920
Flags: HMW
LayerCount: 2
Fore
SplineSet
195 371 m 258
 196 371 l 258
 207 371 210 365 212 353 c 256
 227 122 318 -5 535 -5 c 256
 784 -5 965 157 965 428 c 258
 965 493 l 258
 965 753 804 925 610 925 c 256
 474 925 335 815 248 667 c 256
 241 655 234 650 223 650 c 257
 228 650 l 257
 216 650 210 656 212 670 c 258
 318 1376 l 258
 321 1394 326 1400 344 1400 c 258
 925 1400 l 258
 940 1400 943 1396 943 1391 c 258
 943 1389 l 258
 943 1373 909 1370 741 1370 c 258
 344 1370 l 257
 241 675 l 257
 228 675 l 257
 303 818 450 955 610 955 c 256
 810 955 1000 790 1000 493 c 258
 1000 428 l 258
 1000 131 805 -35 535 -35 c 256
 301 -35 199 101 182 352 c 256
 181 365 185 371 195 371 c 258
EndSplineSet
EndChar

StartChar: six
Encoding: 54 54 8
Width: 1229
VWidth: 1920
Flags: HMW
LayerCount: 2
Fore
SplineSet
640 860 m 256
 400 860 230 665 230 492 c 258
 230 432 l 257
 215 502 l 257
 215 666 373 890 640 890 c 256
 897 890 1039 731 1039 457 c 258
 1039 407 l 258
 1039 129 921 -35 629 -35 c 256
 292 -35 205 197 205 457 c 258
 205 843 l 258
 205 1223 303 1435 630 1435 c 256
 928 1435 1004 1266 1004 1086 c 258
 1004 1058 l 258
 1004 1045 1001 1039 990 1039 c 258
 989 1039 l 258
 978 1039 974 1044 974 1056 c 258
 974 1085 l 258
 974 1248 909 1405 630 1405 c 256
 323 1405 230 1198 230 838 c 258
 230 462 l 258
 230 202 322 -5 629 -5 c 256
 908 -5 1009 157 1009 417 c 258
 1009 457 l 258
 1009 710 880 860 640 860 c 256
EndSplineSet
EndChar

StartChar: seven
Encoding: 55 55 9
Width: 1015
VWidth: 1920
Flags: HMW
LayerCount: 2
Fore
SplineSet
1006 1378 m 258
 362 16 l 258
 357 4 346 -6 335 -6 c 258
 330 -6 l 258
 318 -6 307 5 313 19 c 258
 975 1370 l 257
 91 1370 l 258
 78 1370 72 1373 72 1384 c 262
 72 1385 l 262
 72 1396 78 1400 91 1400 c 258
 992 1400 l 258
 1008 1400 1012 1392 1006 1378 c 258
EndSplineSet
EndChar

StartChar: eight
Encoding: 56 56 10
Width: 1182
VWidth: 1920
Flags: HMW
LayerCount: 2
Fore
SplineSet
591 -5 m 256
 851 -5 957 116 957 342 c 258
 957 397 l 258
 957 604 852 720 591 720 c 256
 330 720 225 604 225 397 c 258
 225 342 l 258
 225 116 331 -5 591 -5 c 256
591 750 m 256
 841 750 907 857 907 1053 c 258
 907 1088 l 258
 907 1295 809 1405 591 1405 c 256
 373 1405 275 1295 275 1088 c 258
 275 1053 l 258
 275 857 341 750 591 750 c 256
622 740 m 257
 872 740 987 624 987 392 c 258
 987 347 l 258
 987 100 869 -35 591 -35 c 256
 313 -35 195 100 195 347 c 258
 195 392 l 258
 195 624 310 740 560 740 c 257
 562 730 l 257
 326 735 245 837 245 1058 c 258
 245 1083 l 258
 245 1304 353 1435 591 1435 c 256
 829 1435 937 1304 937 1083 c 258
 937 1058 l 258
 937 837 856 735 620 730 c 257
 622 740 l 257
EndSplineSet
EndChar

StartChar: nine
Encoding: 57 57 11
Width: 1169
VWidth: 1920
Flags: HMW
LayerCount: 2
Fore
SplineSet
559 540 m 256
 799 540 969 735 969 908 c 258
 969 968 l 257
 984 898 l 257
 984 734 826 510 559 510 c 256
 302 510 160 669 160 943 c 258
 160 993 l 258
 160 1271 278 1435 570 1435 c 256
 907 1435 994 1203 994 943 c 258
 994 557 l 258
 994 177 896 -35 569 -35 c 256
 271 -35 194 134 194 314 c 258
 194 342 l 258
 194 355 197 361 208 361 c 258
 209 361 l 258
 220 361 224 356 224 344 c 258
 224 315 l 258
 224 152 290 -5 569 -5 c 256
 876 -5 969 202 969 562 c 258
 969 938 l 258
 969 1198 877 1405 570 1405 c 256
 291 1405 190 1243 190 983 c 258
 190 943 l 258
 190 690 319 540 559 540 c 256
EndSplineSet
EndChar

StartChar: A
Encoding: 65 65 12
Width: 1166
VWidth: 1920
Flags: HW
AnchorPoint: "bottom" 565 0 basechar 0
AnchorPoint: "ogonek" 1040 0 basechar 0
AnchorPoint: "top" 570 1400 basechar 0
LayerCount: 2
Fore
SplineSet
264 510 m 257
 876 510 l 257
 876 480 l 257
 264 480 l 257
 264 510 l 257
570 1355 m 257
 125 18 l 258
 121 6 116 -3 105 -3 c 258
 98 -3 l 258
 85 -3 82 6 86 18 c 258
 550 1381 l 258
 554 1393 557 1400 569 1400 c 262
 571 1400 l 262
 582 1400 585 1393 589 1381 c 258
 1062 18 l 258
 1066 6 1062 -3 1049 -3 c 258
 1045 -3 l 258
 1034 -3 1027 5 1023 18 c 258
 570 1355 l 257
EndSplineSet
EndChar

StartChar: B
Encoding: 66 66 13
Width: 1185
VWidth: 1920
Flags: HW
AnchorPoint: "bottom" 595 0 basechar 0
AnchorPoint: "top" 574 1400 basechar 0
LayerCount: 2
Fore
SplineSet
273 730 m 257
 674 730 l 258
 878 730 1019 853 1019 1043 c 258
 1019 1068 l 258
 1019 1288 887 1370 674 1370 c 258
 273 1370 l 257
 273 730 l 257
692 720 m 257
 923 720 1099 622 1099 372 c 258
 1099 347 l 258
 1099 67 923 0 692 0 c 258
 266 0 l 258
 250 0 243 8 243 24 c 258
 243 1376 l 258
 243 1392 250 1400 266 1400 c 258
 674 1400 l 258
 905 1400 1054 1313 1054 1063 c 258
 1054 1048 l 258
 1054 828 905 710 674 710 c 257
 692 720 l 257
692 700 m 258
 273 700 l 257
 273 30 l 257
 692 30 l 258
 905 30 1066 92 1066 342 c 258
 1066 377 l 258
 1066 597 905 700 692 700 c 258
EndSplineSet
EndChar

StartChar: C
Encoding: 67 67 14
Width: 1288
VWidth: 1920
Flags: HW
AnchorPoint: "bottom" 655 -25 basechar 0
AnchorPoint: "top" 674 1400 basechar 0
LayerCount: 2
Fore
SplineSet
1185 498 m 256
 1183.77501453 461.250435794 1174.47682449 424.939103475 1168.296875 388 c 0
 1136.9609375 200.697265625 922.897302038 -35 668 -35 c 256
 300 -35 135 238 135 618 c 258
 135 783 l 258
 135 1163 320 1435 668 1435 c 256
 1023.37529527 1435 1137.25168528 1192.79066629 1152.68652635 1037 c 0
 1154.36791089 1020.02904345 1154.65352736 1000.37133829 1155 973 c 256
 1155 964 1149 959 1141 959 c 258
 1140 959 l 258
 1131 959 1125.07316831 964.000297427 1125 973 c 256
 1123 1219 958 1405 668 1405 c 256
 338 1405 165 1143 165 783 c 258
 165 618 l 258
 165 258 329 -5 668 -5 c 256
 881 -5 1138 195 1155 498 c 256
 1155.50726015 507.041166249 1161 514 1169 514 c 262
 1171 514 l 262
 1180 514 1185 507 1185 498 c 256
EndSplineSet
EndChar

StartChar: D
Encoding: 68 68 15
Width: 1273
VWidth: 1920
Flags: HW
AnchorPoint: "bottom" 585 0 basechar 0
AnchorPoint: "top" 604 1400 basechar 0
LayerCount: 2
Fore
SplineSet
638 0 m 258
 248 0 l 258
 232 0 225 9 225 24 c 258
 225 1376 l 258
 225 1392 232 1400 248 1400 c 258
 638 1400 l 258
 921 1400 1126 1159 1126 783 c 258
 1126 618 l 258
 1126 242 957 0 638 0 c 258
638 30 m 258
 930 30 1096 250 1096 618 c 258
 1096 783 l 258
 1096 1141 903 1370 638 1370 c 258
 255 1370 l 257
 255 30 l 257
 638 30 l 258
EndSplineSet
EndChar

StartChar: E
Encoding: 69 69 16
Width: 1204
VWidth: 1920
Flags: HW
AnchorPoint: "bottom" 635 0 basechar 0
AnchorPoint: "ogonek" 1065 0 basechar 0
AnchorPoint: "top" 634 1400 basechar 0
LayerCount: 2
Fore
SplineSet
255 730 m 257
 808 730 l 258
 819 730 825 727 825 716 c 258
 825 715 l 258
 825 704 819 700 808 700 c 258
 255 700 l 257
 255 30 l 257
 1074 30 l 258
 1086 30 1092 27 1092 16 c 258
 1092 15 l 258
 1092 4 1086 0 1074 0 c 258
 248 0 l 258
 232 0 225 8 225 24 c 258
 225 1376 l 258
 225 1392 232 1400 248 1400 c 258
 1054 1400 l 258
 1066 1400 1072 1397 1072 1386 c 258
 1072 1385 l 258
 1072 1374 1066 1370 1054 1370 c 258
 255 1370 l 257
 255 730 l 257
EndSplineSet
EndChar

StartChar: F
Encoding: 70 70 17
Width: 1105
VWidth: 1920
Flags: HW
AnchorPoint: "bottom" 645 0 basechar 0
AnchorPoint: "top" 644 1400 basechar 0
LayerCount: 2
Fore
SplineSet
255 730 m 257
 728 730 l 258
 740 730 747 727 747 716 c 258
 747 714 l 258
 747 703 740 700 728 700 c 258
 255 700 l 257
 255 17 l 258
 255 2 253 -3 241 -3 c 258
 240 -3 l 258
 227 -3 225 2 225 17 c 258
 225 1376 l 258
 225 1392 232 1400 248 1400 c 258
 1012 1400 l 258
 1023 1400 1029 1397 1029 1386 c 262
 1029 1384 l 262
 1029 1373 1023 1370 1012 1370 c 258
 255 1370 l 257
 255 730 l 257
EndSplineSet
EndChar

StartChar: G
Encoding: 71 71 18
Width: 1266
VWidth: 1920
Flags: HW
AnchorPoint: "bottom" 625 0 basechar 0
AnchorPoint: "top" 644 1400 basechar 0
LayerCount: 2
Fore
SplineSet
717 639 m 258
 717 640 l 258
 717 650 723 655 734 655 c 258
 1107 655 l 258
 1119 655 1125 649 1125 637 c 258
 1125 15 l 262
 1125 4 1125 -5 1115 -5 c 262
 1114 -5 l 262
 1104 -5 1102 5 1102 15 c 262
 1096 590 l 257
 1115 620 l 257
 1096 230 904 -35 610 -35 c 256
 271 -35 95 238 95 618 c 258
 95 783 l 258
 95 1163 290 1435 638 1435 c 256
 812 1435 966 1342 1043 1213 c 256
 1087 1139 1114 1052 1115 977 c 256
 1115 964 1112 959 1103 959 c 258
 1102 959 l 258
 1092 959 1088 964 1087 977 c 256
 1077 1212 887 1405 638 1405 c 256
 299 1405 125 1133 125 783 c 258
 125 618 l 258
 125 248 299 -5 620 -5 c 256
 814 -5 1070 153 1092 645 c 257
 1103 625 l 257
 734 625 l 258
 723 625 717 629 717 639 c 258
EndSplineSet
EndChar

StartChar: H
Encoding: 72 72 19
Width: 1271
VWidth: 1920
Flags: HW
AnchorPoint: "bottom" 625 0 basechar 0
AnchorPoint: "top" 624 1400 basechar 0
LayerCount: 2
Fore
SplineSet
1066 1403 m 258
 1067 1403 l 258
 1079 1403 1081 1396 1081 1384 c 258
 1081 16 l 258
 1081 4 1079 -3 1067 -3 c 258
 1066 -3 l 258
 1054 -3 1051 4 1051 16 c 258
 1051 700 l 257
 237 700 l 257
 237 16 l 258
 237 4 234 -3 222 -3 c 258
 221 -3 l 258
 209 -3 207 4 207 16 c 258
 207 1384 l 258
 207 1396 210 1403 222 1403 c 258
 223 1403 l 258
 235 1403 237 1396 237 1384 c 258
 237 730 l 257
 1051 730 l 257
 1051 1384 l 258
 1051 1396 1054 1403 1066 1403 c 258
EndSplineSet
EndChar

StartChar: I
Encoding: 73 73 20
Width: 524
VWidth: 1920
Flags: HW
AnchorPoint: "bottom" 250 0 basechar 0
AnchorPoint: "ogonek" 250 0 basechar 0
AnchorPoint: "top" 249 1400 basechar 0
LayerCount: 2
Fore
SplineSet
248 1403 m 258
 250 1403 l 258
 261 1403 264 1397 264 1384 c 258
 264 16 l 258
 264 3 261 -3 250 -3 c 258
 248 -3 l 258
 237 -3 234 3 234 16 c 258
 234 1384 l 258
 234 1397 237 1403 248 1403 c 258
EndSplineSet
EndChar

StartChar: J
Encoding: 74 74 21
Width: 1137
VWidth: 1920
Flags: HW
AnchorPoint: "bottom" 510 0 basechar 0
AnchorPoint: "top" 893 1400 basechar 0
LayerCount: 2
Fore
SplineSet
891 1403 m 258
 895 1403 l 258
 906 1403 913 1397 913 1384 c 258
 913 538 l 258
 913 152 823 -35 498 -35 c 256
 202 -35 93 155 93 478 c 258
 93 647 l 258
 93 660 99 666 109 666 c 258
 112 666 l 258
 122 666 128 660 128 647 c 258
 128 478 l 258
 128 167 232 -5 496 -5 c 256
 801 -5 873 189 873 508 c 258
 873 1384 l 258
 873 1397 880 1403 891 1403 c 258
EndSplineSet
EndChar

StartChar: K
Encoding: 75 75 22
Width: 1179
VWidth: 1920
Flags: HW
AnchorPoint: "bottom" 585 0 basechar 0
AnchorPoint: "top" 574 1400 basechar 0
LayerCount: 2
Fore
SplineSet
221 1403 m 258
 223 1403 l 258
 234 1403 237 1397 237 1384 c 258
 237 16 l 258
 237 3 234 -3 223 -3 c 258
 221 -3 l 258
 210 -3 207 3 207 16 c 258
 207 1384 l 258
 207 1397 210 1403 221 1403 c 258
502 830 m 257
 524 849 l 257
 1071 20 l 258
 1081 6 1077 -3 1064 -3 c 258
 1062 -3 l 258
 1053 -3 1047 2 1039 14 c 258
 502 830 l 257
1042 1388 m 258
 1050 1396 1053 1403 1061 1403 c 262
 1062 1403 l 262
 1071 1403 1078 1393 1066 1381 c 258
 530 830 l 257
 521 820 l 257
 217 520 l 257
 217 550 l 257
 1042 1388 l 258
EndSplineSet
EndChar

StartChar: L
Encoding: 76 76 23
Width: 1050
VWidth: 1920
Flags: HW
AnchorPoint: "bottom" 645 0 basechar 0
AnchorPoint: "top" 264 1400 basechar 0
LayerCount: 2
Fore
SplineSet
221 1403 m 258
 223 1403 l 258
 233 1403 237 1397 237 1383 c 258
 237 30 l 257
 952 30 l 258
 965 30 970 26 970 16 c 262
 970 15 l 262
 970 5 965 0 952 0 c 258
 228 0 l 258
 214 0 207 7 207 21 c 258
 207 1383 l 258
 207 1397 212 1403 221 1403 c 258
EndSplineSet
EndChar

StartChar: M
Encoding: 77 77 24
Width: 1470
VWidth: 1920
Flags: HW
AnchorPoint: "bottom" 772 0 basechar 0
AnchorPoint: "top" 754 1400 basechar 0
LayerCount: 2
Fore
SplineSet
228 1340 m 257
 228 17 l 258
 228 4 225 -3 214 -3 c 258
 213 -3 l 258
 202 -3 198 4 198 17 c 258
 198 1382 l 258
 198 1394 205 1401 217 1401 c 258
 221 1401 l 258
 232 1401 239 1396 244 1383 c 258
 772 39 l 257
 1273 1381 l 258
 1278 1397 1285 1401 1297 1401 c 258
 1299 1401 l 258
 1313 1401 1319 1395 1319 1383 c 258
 1321 16 l 258
 1321 4 1318 -3 1307 -3 c 258
 1306 -3 l 258
 1295 -3 1291 4 1291 16 c 258
 1289 1340 l 257
 797 14 l 258
 794 4 787 1 779 1 c 258
 765 1 l 258
 757 1 750 4 747 14 c 258
 228 1340 l 257
EndSplineSet
EndChar

StartChar: N
Encoding: 78 78 25
Width: 1271
VWidth: 1920
Flags: HW
AnchorPoint: "bottom" 685 0 basechar 0
AnchorPoint: "top" 694 1400 basechar 0
LayerCount: 2
Fore
SplineSet
1106 1403 m 258
 1107 1403 l 258
 1118 1403 1121 1398 1121 1386 c 258
 1121 12 l 258
 1121 1 1116 -3 1108 -3 c 258
 1096 -3 l 258
 1087 -3 1081 2 1074 13 c 258
 227 1379 l 257
 237 1379 l 257
 237 16 l 258
 237 4 234 -3 223 -3 c 258
 222 -3 l 258
 211 -3 207 4 207 16 c 258
 207 1382 l 258
 207 1395 214 1402 226 1402 c 258
 230 1402 l 258
 241 1402 248 1396 257 1383 c 258
 1101 31 l 257
 1091 31 l 257
 1091 1386 l 258
 1091 1398 1095 1403 1106 1403 c 258
EndSplineSet
EndChar

StartChar: O
Encoding: 79 79 26
Width: 1365
VWidth: 1920
Flags: HW
AnchorPoint: "bottom" 679 0 basechar 0
AnchorPoint: "top" 678 1400 basechar 0
LayerCount: 2
Fore
SplineSet
122 618 m 258
 122 783 l 258
 122 1169 331 1435 674 1435 c 256
 1017 1435 1225 1169 1225 783 c 258
 1225 618 l 258
 1225 232 1017 -35 674 -35 c 256
 331 -35 122 232 122 618 c 258
152 618 m 258
 152 250 347 -5 674 -5 c 256
 1001 -5 1195 250 1195 618 c 258
 1195 783 l 258
 1195 1151 1002 1405 674 1405 c 256
 346 1405 152 1151 152 783 c 258
 152 618 l 258
EndSplineSet
EndChar

StartChar: P
Encoding: 80 80 27
Width: 1183
VWidth: 1920
Flags: HW
AnchorPoint: "bottom" 235 0 basechar 0
AnchorPoint: "top" 584 1400 basechar 0
LayerCount: 2
Fore
SplineSet
255 1370 m 257
 255 685 l 257
 633 685 l 258
 873 685 1002 738 1002 988 c 258
 1002 1052 l 258
 1002 1302 873 1370 633 1370 c 258
 255 1370 l 257
633 1400 m 258
 891 1400 1032 1322 1032 1052 c 258
 1032 988 l 258
 1032 718 891 655 633 655 c 258
 255 655 l 257
 255 16 l 258
 255 4 252 -3 241 -3 c 262
 239 -3 l 262
 228 -3 225 4 225 16 c 258
 225 1378 l 258
 225 1392 233 1400 247 1400 c 258
 633 1400 l 258
EndSplineSet
EndChar

StartChar: Q
Encoding: 81 81 28
Width: 1487
VWidth: 1920
Flags: HW
AnchorPoint: "bottom" 681 0 basechar 0
AnchorPoint: "top" 680 1400 basechar 0
LayerCount: 2
Fore
SplineSet
1449 18 m 258
 1449 16 l 258
 1449 6 1443 1 1430 -3 c 256
 1220 -55 1186 133 1186 398 c 257
 1209 588 l 257
 1209 238 1040 -35 656 -35 c 256
 299 -35 131 268 131 618 c 258
 131 783 l 258
 131 1133 290 1435 674 1435 c 256
 1058 1435 1216 1143 1216 793 c 258
 1216 328 l 258
 1216 84 1288 -15 1428 30 c 256
 1442 34 1449 27 1449 18 c 258
1186 558 m 258
 1186 793 l 258
 1186 1103 1031 1405 674 1405 c 256
 317 1405 161 1113 161 783 c 258
 161 618 l 258
 161 288 317 -5 674 -5 c 256
 1004 -5 1186 258 1186 558 c 258
EndSplineSet
EndChar

StartChar: R
Encoding: 82 82 29
Width: 1275
VWidth: 1920
Flags: HW
AnchorPoint: "bottom" 645 0 basechar 0
AnchorPoint: "top" 624 1400 basechar 0
LayerCount: 2
Fore
SplineSet
255 1370 m 257
 255 725 l 257
 687 725 l 258
 855 725 1008 818 1008 1008 c 258
 1008 1042 l 258
 1008 1252 900 1370 687 1370 c 258
 255 1370 l 257
687 1400 m 258
 909 1400 1038 1272 1038 1042 c 258
 1038 1018 l 258
 1038 808 900 710 687 710 c 257
 687 720 l 257
 918 720 1028 662 1028 422 c 258
 1028 328 l 258
 1028 214 1055 94 1097 27 c 256
 1105 14 1105 11 1105 7 c 258
 1105 6 l 258
 1105 2 1100 -4 1093 -4 c 258
 1092 -4 l 258
 1082 -4 1077 0 1071 12 c 256
 1021 110 996 201 996 328 c 258
 996 422 l 258
 996 662 882 705 687 705 c 258
 255 705 l 257
 255 17 l 258
 255 4 253 -3 241 -3 c 258
 239 -3 l 258
 227 -3 225 4 225 17 c 258
 225 1376 l 258
 225 1392 232 1400 248 1400 c 258
 687 1400 l 258
EndSplineSet
EndChar

StartChar: S
Encoding: 83 83 30
Width: 1173
VWidth: 1920
Flags: HW
AnchorPoint: "bottom" 574 -25 basechar 0
AnchorPoint: "top" 574 1400 basechar 0
LayerCount: 2
Fore
SplineSet
149 511 m 258
 151 511 l 258
 158 511 165 506 165 493 c 256
 165 462 166 452 166 431 c 260
 165 156 291 -5 588 -5 c 260
 865 -5 1006 108 1006 338 c 256
 1006 584 778 619 610 678 c 256
 401 753 175 828 175 1073 c 256
 175 1293 325 1435 574 1435 c 256
 866 1435 982 1256 982 1041 c 258
 982 977 l 258
 982 965 977 960 968 960 c 258
 966 960 l 258
 957 960 953 963 952 975 c 256
 952 997 952 1007 952 1033 c 256
 951 1257 839 1405 574 1405 c 256
 343 1405 210 1283 210 1073 c 256
 210 843 434 770 625 707 c 256
 830 637 1042 587 1042 338 c 256
 1042 92 893 -35 588 -35 c 256
 265 -35 136 153 136 388 c 258
 136 492 l 258
 136 505 142 511 149 511 c 258
EndSplineSet
EndChar

StartChar: T
Encoding: 84 84 31
Width: 1108
VWidth: 1920
Flags: HW
AnchorPoint: "bottom" 559 0 basechar 0
AnchorPoint: "top" 559 1400 basechar 0
LayerCount: 2
Fore
SplineSet
51 1400 m 258
 1053 1400 l 258
 1066 1400 1071 1395 1071 1385 c 258
 1071 1384 l 258
 1071 1374 1066 1370 1053 1370 c 258
 567 1370 l 257
 567 16 l 258
 567 3 564 -3 553 -3 c 258
 551 -3 l 258
 540 -3 537 3 537 16 c 258
 537 1370 l 257
 51 1370 l 258
 38 1370 33 1374 33 1384 c 258
 33 1385 l 258
 33 1395 38 1400 51 1400 c 258
EndSplineSet
EndChar

StartChar: U
Encoding: 85 85 32
Width: 1281
VWidth: 1920
Flags: HW
AnchorPoint: "bottom" 635 0 basechar 0
AnchorPoint: "ogonek" 800 0 basechar 0
AnchorPoint: "top" 634 1400 basechar 0
LayerCount: 2
Fore
SplineSet
1024 488 m 258
 1024 1384 l 258
 1024 1397 1027 1403 1038 1403 c 258
 1040 1403 l 258
 1051 1403 1054 1397 1054 1384 c 258
 1054 498 l 258
 1054 178 990 -35 633 -35 c 256
 285 -35 229 178 229 558 c 258
 229 1384 l 258
 229 1397 232 1403 243 1403 c 258
 245 1403 l 258
 256 1403 259 1397 259 1384 c 258
 259 548 l 258
 259 228 294 -5 633 -5 c 256
 963 -5 1024 188 1024 488 c 258
EndSplineSet
EndChar

StartChar: V
Encoding: 86 86 33
Width: 1168
VWidth: 1920
Flags: HW
AnchorPoint: "bottom" 595 0 basechar 0
AnchorPoint: "top" 594 1400 basechar 0
LayerCount: 2
Fore
SplineSet
593 45 m 257
 1037 1382 l 258
 1041 1394 1047 1403 1058 1403 c 258
 1060 1403 l 258
 1073 1403 1080 1394 1076 1382 c 258
 612 19 l 258
 608 7 602 0 589 0 c 257
 598 0 l 257
 585 0 578 7 574 19 c 258
 101 1382 l 258
 97 1394 103 1403 116 1403 c 258
 118 1403 l 262
 129 1403 136 1395 140 1382 c 258
 593 45 l 257
EndSplineSet
EndChar

StartChar: W
Encoding: 87 87 34
Width: 1647
VWidth: 1920
Flags: HW
AnchorPoint: "bottom" 843 0 basechar 0
AnchorPoint: "top" 842 1400 basechar 0
LayerCount: 2
Fore
SplineSet
497 60 m 257
 818 1388 l 258
 821 1397 828 1403 836 1403 c 258
 844 1403 l 258
 853 1403 860 1397 862 1388 c 258
 1226 44 l 257
 1512 1384 l 258
 1515 1398 1520 1403 1528 1403 c 262
 1529 1403 l 262
 1539 1403 1543 1397 1540 1383 c 258
 1248 16 l 262
 1245 3 1237 -3 1226 -3 c 258
 1220 -3 l 258
 1209 -3 1204 3 1200 16 c 262
 840 1364 l 257
 516 16 l 262
 513 4 505 -3 495 -3 c 258
 494 -3 l 258
 483 -3 475 3 472 16 c 262
 117 1383 l 258
 113 1396 119 1403 130 1403 c 258
 131 1403 l 258
 141 1403 149 1396 151 1383 c 258
 497 60 l 257
EndSplineSet
EndChar

StartChar: X
Encoding: 88 88 35
Width: 1168
VWidth: 1920
Flags: HW
AnchorPoint: "bottom" 595 0 basechar 0
AnchorPoint: "top" 594 1400 basechar 0
LayerCount: 2
Fore
SplineSet
1013 1403 m 258
 1014 1403 l 258
 1025 1403 1030 1395 1020 1379 c 258
 606 715 l 257
 1044 21 l 258
 1053 7 1050 -3 1037 -3 c 258
 1035 -3 l 258
 1025 -3 1018 2 1010 16 c 258
 585 696 l 257
 143 16 l 258
 134 2 129 -3 119 -3 c 258
 118 -3 l 258
 107 -3 102 4 112 18 c 258
 569 717 l 257
 143 1379 l 258
 133 1394 143 1403 155 1403 c 258
 156 1403 l 258
 166 1403 170 1398 178 1384 c 258
 588 737 l 257
 991 1386 l 258
 998 1398 1003 1403 1013 1403 c 258
EndSplineSet
EndChar

StartChar: Y
Encoding: 89 89 36
Width: 1164
VWidth: 1920
Flags: HW
AnchorPoint: "bottom" 580 0 basechar 0
AnchorPoint: "top" 584 1400 basechar 0
LayerCount: 2
Fore
SplineSet
1054 1403 m 258
 1055 1403 l 258
 1067 1403 1072 1395 1066 1384 c 258
 592 550 l 257
 592 17 l 258
 592 4 589 -3 579 -3 c 262
 578 -3 l 262
 568 -3 565 4 565 17 c 258
 565 550 l 257
 82 1383 l 258
 75 1395 80 1403 92 1403 c 258
 93 1403 l 258
 102 1403 107 1397 113 1386 c 258
 581 580 l 257
 1034 1386 l 258
 1041 1398 1046 1403 1054 1403 c 258
EndSplineSet
EndChar

StartChar: Z
Encoding: 90 90 37
Width: 1103
VWidth: 1920
Flags: HW
AnchorPoint: "bottom" 555 0 basechar 0
AnchorPoint: "top" 554 1400 basechar 0
LayerCount: 2
Fore
SplineSet
33 21 m 258
 983 1370 l 257
 122 1370 l 258
 111 1370 105 1373 105 1384 c 258
 105 1385 l 258
 105 1396 111 1400 122 1400 c 258
 1021 1400 l 258
 1035 1400 1041 1391 1031 1377 c 258
 82 30 l 257
 1022 30 l 258
 1034 30 1040 27 1040 16 c 258
 1040 15 l 258
 1040 4 1034 0 1022 0 c 258
 40 0 l 258
 27 0 23 8 33 21 c 258
EndSplineSet
EndChar

StartChar: a
Encoding: 97 97 38
Width: 999
VWidth: 1920
Flags: HW
AnchorPoint: "bottom" 549 0 basechar 0
AnchorPoint: "ogonek" 884 0 basechar 0
AnchorPoint: "top" 498 1050 basechar 0
LayerCount: 2
Fore
SplineSet
100 243 m 256
 100 71 213 -7 396 -7 c 256
 635 -7 817 232 817 398 c 257
 832 378 l 257
 832 185 627 -35 401 -35 c 256
 186 -35 70 55 70 240 c 256
 70 451 239 540 483 575 c 256
 692 605 817 605 817 758 c 257
 837 738 l 257
 837 585 686 579 489 550 c 256
 247 514 100 433 100 243 c 256
817 208 m 258
 817 778 l 258
 817 938 711 1060 509 1060 c 256
 298 1060 177 948 157 747 c 256
 156 736 154 730 143 730 c 258
 142 730 l 258
 131 730 128 736 129 747 c 256
 154 965 282 1085 510 1085 c 256
 726 1085 847 951 847 773 c 258
 847 208 l 258
 847 116 868 53 902 12 c 256
 910 2 904 -5 895 -5 c 262
 894 -5 l 262
 884 -5 876 2 869 10 c 256
 834 52 817 113 817 208 c 258
EndSplineSet
EndChar

StartChar: b
Encoding: 98 98 39
Width: 1093
VWidth: 1920
Flags: HW
LayerCount: 2
Fore
SplineSet
134 1453 m 258
 136 1453 l 258
 147 1453 150 1447 150 1435 c 258
 150 376 l 257
 149 -17 l 258
 149 -30 144 -34 135 -34 c 258
 134 -34 l 258
 125 -34 120 -31 120 -20 c 258
 120 1435 l 258
 120 1447 123 1453 134 1453 c 258
135 633 m 257
 135 903 361 1085 578 1085 c 256
 784 1085 1018 943 1018 603 c 258
 1018 447 l 258
 1018 127 793 -35 587 -35 c 256
 343 -35 135 157 135 417 c 257
 150 437 l 257
 150 197 344 -5 587 -5 c 256
 775 -5 988 147 988 447 c 258
 988 603 l 258
 988 923 766 1055 578 1055 c 256
 353 1055 150 853 150 613 c 257
 135 633 l 257
EndSplineSet
EndChar

StartChar: c
Encoding: 99 99 40
Width: 988
VWidth: 1920
Flags: HW
AnchorPoint: "bottom" 523 -25 basechar 0
AnchorPoint: "top" 509 1050 basechar 0
LayerCount: 2
Fore
SplineSet
943 377 m 256
 940 299 915 210 864 136 c 256
 795 39 681 -35 513 -35 c 256
 258 -35 65 171 65 468 c 258
 65 583 l 258
 65 880 253 1085 508 1085 c 256
 676 1085 799 999 869 890 c 256
 909 825 932 749 933 675 c 256
 933 666 930 660 920 660 c 258
 919 660 l 258
 908 660 904 666 904 676 c 256
 904 737 886 805 851 864 c 256
 789 972 671 1060 508 1060 c 256
 257 1060 91 853 91 583 c 258
 91 468 l 258
 91 195 264 -9 513 -9 c 256
 675 -9 782 65 845 160 c 256
 889 227 911 303 915 375 c 256
 916 385 918 391 929 391 c 258
 930 391 l 258
 940 391 943 386 943 377 c 256
EndSplineSet
EndChar

StartChar: d
Encoding: 100 100 41
Width: 1093
VWidth: 1920
Flags: HW
LayerCount: 2
Fore
SplineSet
958 417 m 257
 958 167 763 -35 506 -35 c 256
 300 -35 75 127 75 447 c 258
 75 603 l 258
 75 943 308 1085 514 1085 c 256
 751 1085 958 883 958 633 c 257
 943 613 l 257
 943 823 751 1055 514 1055 c 256
 326 1055 105 923 105 603 c 258
 105 447 l 258
 105 147 318 -5 506 -5 c 256
 772 -5 943 227 943 437 c 257
 958 417 l 257
973 1434 m 258
 973 16 l 258
 973 4 973 -3 962 -3 c 258
 961 -3 l 258
 950 -3 949 4 949 16 c 258
 949 370 l 257
 943 402 l 257
 943 1434 l 258
 943 1446 946 1453 957 1453 c 258
 958 1453 l 258
 969 1453 973 1446 973 1434 c 258
EndSplineSet
EndChar

StartChar: e
Encoding: 101 101 42
Width: 1082
VWidth: 1920
Flags: HW
AnchorPoint: "bottom" 602 0 basechar 0
AnchorPoint: "ogonek" 783 20 basechar 0
AnchorPoint: "top" 553 1050 basechar 0
LayerCount: 2
Fore
SplineSet
993 322 m 256
 993 294 979 248 961 206 c 256
 904 74 790 -35 567 -35 c 256
 331 -35 105 138 105 448 c 258
 105 603 l 258
 105 903 330 1085 554 1085 c 256
 815 1085 954 893 986 674 c 256
 996 607 997 571 997 543 c 256
 997 532 991 526 978 526 c 258
 119 526 l 257
 119 555 l 257
 969 555 l 257
 965 892 780 1060 554 1060 c 256
 339 1060 135 873 135 603 c 258
 135 448 l 258
 135 178 331 -10 566 -10 c 256
 842 -10 943 181 964 321 c 256
 966 332 970 340 979 340 c 258
 980 340 l 258
 990 340 993 332 993 322 c 256
EndSplineSet
EndChar

StartChar: f
Encoding: 102 102 43
Width: 620
VWidth: 1920
Flags: HW
LayerCount: 2
Fore
SplineSet
574 1025 m 258
 76 1025 l 258
 63 1025 57 1029 57 1037 c 258
 57 1038 l 258
 57 1046 63 1050 76 1050 c 258
 574 1050 l 258
 587 1050 593 1046 593 1038 c 257
 593 1037 l 257
 593 1028 587 1025 574 1025 c 258
250 1188 m 262
 250 1395 291 1467 572 1441 c 260
 587 1440 593 1437 593 1428 c 262
 593 1427 l 262
 593 1418 587 1415 568 1417 c 260
 311 1444 285 1383 285 1188 c 262
 285 16 l 262
 285 4 279 -3 268 -3 c 262
 267 -3 l 262
 256 -3 250 4 250 16 c 262
 250 1188 l 262
EndSplineSet
EndChar

StartChar: g
Encoding: 103 103 44
Width: 862
VWidth: 1920
Flags: HW
AnchorPoint: "top" 377 1100 basechar 0
LayerCount: 2
Fore
SplineSet
795 1243 m 256
 779 1057 682 1010 638 1010 c 257
 610 1020 l 257
 663 1020 755 1071 765 1245 c 256
 766 1258 771 1263 779 1263 c 258
 780 1263 l 258
 789 1263 796 1257 795 1243 c 256
572 190 m 258
 729 177 817 92 817 -35 c 256
 817 -212 654 -360 387 -360 c 258
 364 -360 l 258
 193 -360 5 -280 5 -93 c 256
 5 54 119 176 250 206 c 257
 264 190 l 257
 133 160 38 42 38 -95 c 256
 38 -269 222 -330 364 -330 c 258
 387 -330 l 258
 636 -330 779 -192 779 -35 c 256
 779 72 720 147 563 160 c 258
 329 180 l 258
 185 192 90 228 90 315 c 256
 90 422 223 455 385 505 c 257
 387 495 l 257
 261 435 120 414 120 317 c 256
 120 245 222 219 329 210 c 258
 572 190 l 258
737 773 m 258
 737 788 l 258
 737 955 597 1055 424 1055 c 256
 246 1055 108 948 108 788 c 258
 108 773 l 258
 108 633 246 515 424 515 c 256
 597 515 737 625 737 773 c 258
767 773 m 258
 767 623 627 485 423 485 c 256
 219 485 78 623 78 773 c 258
 78 788 l 258
 78 958 219 1085 423 1085 c 256
 627 1085 767 958 767 788 c 258
 767 773 l 258
EndSplineSet
EndChar

StartChar: h
Encoding: 104 104 45
Width: 986
VWidth: 1920
Flags: HW
AnchorPoint: "bottom" 495 0 basechar 0
AnchorPoint: "top" 141 1450 basechar 0
LayerCount: 2
Fore
SplineSet
139 1453 m 258
 141 1453 l 258
 152 1453 155 1447 155 1434 c 258
 155 16 l 258
 155 3 151 -3 140 -3 c 258
 139 -3 l 258
 128 -3 125 3 125 16 c 258
 125 1434 l 258
 125 1447 128 1453 139 1453 c 258
135 623 m 257
 135 853 300 1085 534 1085 c 256
 750 1085 861 963 861 733 c 258
 861 16 l 258
 861 3 858 -3 847 -3 c 258
 845 -3 l 258
 834 -3 831 3 831 16 c 258
 831 733 l 258
 831 943 732 1060 534 1060 c 256
 305 1060 155 833 155 623 c 257
 135 623 l 257
EndSplineSet
EndChar

StartChar: i
Encoding: 105 105 46
Width: 266
VWidth: 1920
Flags: HW
AnchorPoint: "bottom" 125 0 basechar 0
AnchorPoint: "ogonek" 125 0 basechar 0
LayerCount: 2
Fore
SplineSet
150 1394 m 258
 150 1229 l 258
 150 1217 146 1210 133 1210 c 258
 132 1210 l 258
 119 1210 116 1217 116 1229 c 258
 116 1394 l 258
 116 1406 119 1414 132 1414 c 258
 134 1414 l 258
 147 1414 150 1406 150 1394 c 258
148 1034 m 258
 148 16 l 258
 148 3 145 -3 134 -3 c 258
 132 -3 l 258
 121 -3 118 3 118 16 c 258
 118 1034 l 258
 118 1047 121 1053 132 1053 c 258
 134 1053 l 258
 145 1053 148 1047 148 1034 c 258
EndSplineSet
EndChar

StartChar: j
Encoding: 106 106 47
Width: 266
VWidth: 1920
Flags: HW
LayerCount: 2
Fore
SplineSet
150 1394 m 258
 150 1229 l 258
 150 1217 147 1210 134 1210 c 258
 132 1210 l 258
 119 1210 116 1217 116 1229 c 258
 116 1394 l 258
 116 1406 119 1414 132 1414 c 258
 134 1414 l 258
 147 1414 150 1406 150 1394 c 258
148 -86 m 262
 148 -293 106 -377 -175 -351 c 260
 -189 -350 -195 -347 -195 -336 c 262
 -195 -334 l 262
 -195 -323 -189 -320 -176 -321 c 260
 69 -347 118 -285 118 -88 c 262
 118 1034 l 262
 118 1047 121 1053 132 1053 c 262
 134 1053 l 262
 145 1053 148 1047 148 1034 c 262
 148 -86 l 262
EndSplineSet
EndChar

StartChar: k
Encoding: 107 107 48
Width: 879
VWidth: 1920
Flags: HW
LayerCount: 2
Fore
SplineSet
134 1453 m 258
 136 1453 l 258
 147 1453 150 1447 150 1434 c 258
 150 16 l 258
 150 3 147 -3 136 -3 c 258
 134 -3 l 258
 123 -3 120 3 120 16 c 258
 120 1434 l 258
 120 1447 123 1453 134 1453 c 258
122 391 m 257
 758 1036 l 258
 769 1049 776 1053 785 1053 c 258
 786 1053 l 262
 797 1053 807 1045 794 1032 c 258
 140 373 l 257
 122 391 l 257
352 613 m 257
 373 633 l 257
 869 21 l 258
 881 6 874 -3 863 -3 c 258
 861 -3 l 258
 850 -3 846 3 837 14 c 258
 352 613 l 257
EndSplineSet
EndChar

StartChar: l
Encoding: 108 108 49
Width: 286
VWidth: 1920
Flags: HW
LayerCount: 2
Fore
SplineSet
142 1453 m 258
 144 1453 l 258
 155 1453 158 1447 158 1434 c 258
 158 16 l 258
 158 3 155 -3 144 -3 c 262
 142 -3 l 262
 131 -3 128 3 128 16 c 258
 128 1434 l 258
 128 1447 131 1453 142 1453 c 258
EndSplineSet
EndChar

StartChar: m
Encoding: 109 109 50
Width: 1549
VWidth: 1920
Flags: HW
LayerCount: 2
Fore
SplineSet
769 623 m 257
 769 963 962 1085 1130 1085 c 256
 1298 1085 1421 963 1421 763 c 258
 1421 16 l 258
 1421 3 1418 -3 1407 -3 c 258
 1405 -3 l 258
 1394 -3 1391 3 1391 16 c 258
 1391 763 l 258
 1391 953 1280 1060 1130 1060 c 256
 971 1060 789 923 789 623 c 257
 769 623 l 257
137 1053 m 258
 138 1053 l 258
 146 1053 148 1047 148 1034 c 258
 148 722 l 257
 157 695 l 257
 157 16 l 258
 157 3 154 -3 144 -3 c 258
 142 -3 l 258
 131 -3 128 3 128 16 c 258
 128 1034 l 258
 128 1047 130 1053 137 1053 c 258
138 643 m 257
 138 933 330 1085 498 1085 c 256
 666 1085 789 963 789 763 c 258
 789 16 l 258
 789 3 786 -3 775 -3 c 258
 773 -3 l 258
 762 -3 759 3 759 16 c 258
 759 763 l 258
 759 943 648 1060 498 1060 c 256
 339 1060 157 903 157 623 c 257
 138 643 l 257
EndSplineSet
EndChar

StartChar: n
Encoding: 110 110 51
Width: 986
VWidth: 1920
Flags: HW
AnchorPoint: "bottom" 495 0 basechar 0
AnchorPoint: "top" 516 1050 basechar 0
LayerCount: 2
Fore
SplineSet
137 1053 m 258
 139 1053 l 258
 148 1053 151 1047 151 1034 c 258
 151 667 l 257
 155 640 l 257
 155 16 l 258
 155 3 152 -3 141 -3 c 258
 139 -3 l 258
 128 -3 125 3 125 16 c 258
 125 1034 l 258
 125 1047 128 1053 137 1053 c 258
135 623 m 257
 135 853 300 1085 534 1085 c 256
 750 1085 861 963 861 733 c 258
 861 16 l 258
 861 3 858 -3 847 -3 c 262
 845 -3 l 262
 834 -3 831 3 831 16 c 258
 831 733 l 258
 831 943 732 1060 534 1060 c 256
 305 1060 155 833 155 623 c 257
 135 623 l 257
EndSplineSet
EndChar

StartChar: o
Encoding: 111 111 52
Width: 1110
VWidth: 1920
Flags: HW
AnchorPoint: "bottom" 557 0 basechar 0
AnchorPoint: "top" 558 1050 basechar 0
LayerCount: 2
Fore
SplineSet
90 468 m 258
 90 583 l 258
 90 873 288 1085 555 1085 c 256
 822 1085 1020 873 1020 583 c 258
 1020 468 l 258
 1020 178 822 -35 555 -35 c 256
 288 -35 90 178 90 468 c 258
115 468 m 258
 115 198 306 -10 555 -10 c 256
 804 -10 995 198 995 468 c 258
 995 583 l 258
 995 853 804 1060 555 1060 c 256
 306 1060 115 853 115 583 c 258
 115 468 l 258
EndSplineSet
EndChar

StartChar: p
Encoding: 112 112 53
Width: 1093
VWidth: 1920
Flags: HW
LayerCount: 2
Fore
SplineSet
135 633 m 257
 135 903 361 1085 578 1085 c 256
 784 1085 1018 943 1018 603 c 258
 1018 447 l 258
 1018 127 793 -35 587 -35 c 256
 343 -35 135 157 135 417 c 257
 150 437 l 257
 150 197 344 -5 587 -5 c 256
 775 -5 988 147 988 447 c 258
 988 603 l 258
 988 923 766 1055 578 1055 c 256
 353 1055 150 853 150 613 c 257
 135 633 l 257
120 -344 m 258
 120 1034 l 258
 120 1046 121 1053 132 1053 c 258
 133 1053 l 258
 144 1053 145 1046 145 1034 c 258
 145 683 l 257
 150 652 l 257
 150 -344 l 258
 150 -356 147 -363 136 -363 c 262
 134 -363 l 262
 123 -363 120 -356 120 -344 c 258
EndSplineSet
EndChar

StartChar: q
Encoding: 113 113 54
Width: 1093
VWidth: 1920
Flags: HW
LayerCount: 2
Fore
SplineSet
959 -363 m 258
 958 -363 l 258
 947 -363 943 -357 943 -345 c 258
 943 674 l 257
 944 1067 l 258
 944 1080 949 1084 958 1084 c 258
 959 1084 l 258
 968 1084 973 1081 973 1070 c 258
 973 -345 l 258
 973 -357 970 -363 959 -363 c 258
958 417 m 257
 958 167 763 -35 506 -35 c 256
 300 -35 75 127 75 447 c 258
 75 603 l 258
 75 943 308 1085 514 1085 c 256
 751 1085 958 883 958 633 c 257
 943 613 l 257
 943 823 751 1055 514 1055 c 256
 326 1055 105 923 105 603 c 258
 105 447 l 258
 105 147 318 -5 506 -5 c 256
 772 -5 943 227 943 437 c 257
 958 417 l 257
EndSplineSet
EndChar

StartChar: r
Encoding: 114 114 55
Width: 635
VWidth: 1920
Flags: HW
AnchorPoint: "bottom" 164 0 basechar 0
AnchorPoint: "top" 315 1050 basechar 0
LayerCount: 2
Fore
SplineSet
132 1053 m 258
 133 1053 l 258
 143 1053 145 1047 145 1034 c 258
 145 714 l 257
 150 705 l 257
 150 16 l 258
 150 3 147 -3 136 -3 c 258
 134 -3 l 258
 123 -3 120 3 120 16 c 258
 120 1034 l 258
 120 1047 122 1053 132 1053 c 258
130 663 m 257
 130 858 349 1085 565 1076 c 256
 582 1075 590 1072 590 1061 c 262
 590 1060 l 262
 590 1050 582 1048 562 1049 c 256
 370 1062 150 845 150 663 c 257
 130 663 l 257
EndSplineSet
EndChar

StartChar: s
Encoding: 115 115 56
Width: 944
VWidth: 1920
Flags: HW
AnchorPoint: "bottom" 487 -25 basechar 0
AnchorPoint: "top" 458 1050 basechar 0
LayerCount: 2
Fore
SplineSet
79 361 m 262
 80 361 l 262
 90 361 94 357 94 346 c 260
 94 315 96 285 99 259 c 256
 128 48 344 -7 489 -7 c 256
 683 -7 842 88 842 264 c 256
 842 680 108 396 108 816 c 256
 108 984 243 1085 460 1085 c 256
 641 1085 811 995 829 807 c 256
 831 787 831 766 831 747 c 256
 831 734 828 729 819 729 c 258
 818 729 l 258
 809 729 805 735 805 747 c 256
 805 768 804 788 803 807 c 256
 786 979 620 1060 458 1060 c 256
 249 1060 137 963 137 815 c 256
 137 429 876 705 876 265 c 256
 876 85 710 -36 489 -36 c 256
 319 -36 102 26 69 255 c 256
 65 281 64 310 64 343 c 260
 64 356 68 361 79 361 c 262
EndSplineSet
EndChar

StartChar: t
Encoding: 116 116 57
Width: 625
VWidth: 1920
Flags: HW
AnchorPoint: "bottom" 357 0 basechar 0
LayerCount: 2
Fore
SplineSet
564 1025 m 258
 46 1025 l 258
 33 1025 27 1026 27 1037 c 258
 27 1038 l 258
 27 1049 33 1050 46 1050 c 258
 564 1050 l 258
 577 1050 583 1049 583 1038 c 258
 583 1037 l 258
 583 1026 577 1025 564 1025 c 258
589 12 m 258
 589 11 l 258
 589 3 582 0 569 -2 c 256
 287 -37 250 44 250 252 c 258
 250 1284 l 258
 250 1297 251 1304 262 1304 c 258
 263 1304 l 258
 274 1304 275 1297 275 1284 c 258
 275 252 l 258
 275 55 306 -11 570 19 c 256
 581 20 589 21 589 12 c 258
EndSplineSet
EndChar

StartChar: u
Encoding: 117 117 58
Width: 986
VWidth: 1920
Flags: HW
AnchorPoint: "bottom" 515 0 basechar 0
AnchorPoint: "ogonek" 839 0 basechar 0
AnchorPoint: "top" 486 1050 basechar 0
LayerCount: 2
Fore
SplineSet
849 -3 m 262
 848 -3 l 262
 838 -3 835 3 835 16 c 262
 835 383 l 261
 831 410 l 261
 831 1034 l 262
 831 1047 834 1053 845 1053 c 262
 847 1053 l 262
 858 1053 861 1047 861 1034 c 262
 861 16 l 262
 861 3 858 -3 849 -3 c 262
851 427 m 261
 851 197 686 -35 452 -35 c 260
 236 -35 125 87 125 317 c 262
 125 1034 l 262
 125 1047 128 1053 139 1053 c 262
 141 1053 l 262
 152 1053 155 1047 155 1034 c 262
 155 317 l 262
 155 107 254 -10 452 -10 c 260
 681 -10 831 217 831 427 c 261
 851 427 l 261
EndSplineSet
EndChar

StartChar: v
Encoding: 118 118 59
Width: 886
VWidth: 1920
Flags: HW
LayerCount: 2
Fore
SplineSet
441 37 m 257
 832 1034 l 258
 836 1047 841 1053 851 1053 c 258
 853 1053 l 258
 864 1053 867 1047 862 1034 c 258
 461 16 l 258
 455 1 449 -3 439 -3 c 258
 438 -3 l 258
 428 -3 422 2 417 16 c 258
 23 1034 l 258
 19 1047 24 1053 32 1053 c 258
 34 1053 l 258
 43 1053 48 1047 52 1034 c 258
 441 37 l 257
EndSplineSet
EndChar

StartChar: w
Encoding: 119 119 60
Width: 1407
VWidth: 1920
Flags: HW
LayerCount: 2
Fore
SplineSet
1017 58 m 257
 1339 1034 l 258
 1343 1047 1347 1053 1357 1053 c 258
 1358 1053 l 258
 1367 1053 1372 1047 1368 1034 c 258
 1033 16 l 258
 1029 3 1027 -3 1016 -3 c 258
 1015 -3 l 258
 1005 -3 1003 2 999 16 c 258
 715 1011 l 257
 406 16 l 262
 402 2 399 -3 389 -3 c 262
 388 -3 l 262
 377 -3 373 2 369 16 c 262
 40 1030 l 258
 35 1045 40 1053 50 1053 c 258
 52 1053 l 258
 62 1053 65 1047 69 1034 c 258
 389 58 l 257
 697 1034 l 258
 701 1047 706 1053 716 1053 c 258
 718 1053 l 258
 728 1053 733 1047 737 1034 c 258
 1017 58 l 257
EndSplineSet
EndChar

StartChar: x
Encoding: 120 120 61
Width: 922
VWidth: 1920
Flags: HW
LayerCount: 2
Fore
SplineSet
59 -3 m 258
 58 -3 l 258
 46 -3 44 8 54 22 c 258
 451 548 l 257
 67 1031 l 258
 57 1044 63 1053 73 1053 c 258
 74 1053 l 258
 84 1053 91 1047 101 1034 c 258
 466 567 l 257
 826 1034 l 258
 836 1047 839 1053 848 1053 c 258
 849 1053 l 258
 859 1053 864 1043 853 1029 c 258
 479 551 l 257
 868 23 l 258
 879 8 874 -3 862 -3 c 258
 860 -3 l 258
 849 -3 846 4 837 16 c 258
 464 528 l 257
 82 16 l 258
 74 3 69 -3 59 -3 c 258
EndSplineSet
EndChar

StartChar: y
Encoding: 121 121 62
Width: 909
VWidth: 1920
Flags: HW
AnchorPoint: "top" 455 1050 basechar 0
LayerCount: 2
Fore
SplineSet
456 28 m 257
 830 1034 l 258
 834 1046 839 1053 850 1053 c 258
 853 1053 l 258
 865 1053 867 1044 863 1031 c 258
 444 -111 l 257
 350 -393 299 -399 111 -364 c 256
 93 -361 83 -355 83 -345 c 258
 83 -343 l 258
 83 -332 92 -326 107 -329 c 256
 299 -371 337 -375 439 -10 c 257
 41 1031 l 258
 37 1044 39 1053 51 1053 c 258
 52 1053 l 258
 63 1053 65 1045 69 1034 c 258
 456 28 l 257
EndSplineSet
EndChar

StartChar: z
Encoding: 122 122 63
Width: 888
VWidth: 1920
Flags: HW
AnchorPoint: "top" 451 1050 basechar 0
LayerCount: 2
Fore
SplineSet
66 24 m 258
 797 1020 l 257
 132 1020 l 258
 117 1020 113 1021 113 1034 c 262
 113 1035 l 262
 113 1048 117 1050 132 1050 c 258
 835 1050 l 258
 850 1050 855 1041 845 1028 c 258
 113 30 l 257
 852 30 l 258
 865 30 871 27 871 16 c 258
 871 15 l 258
 871 4 865 0 852 0 c 258
 74 0 l 258
 60 0 55 10 66 24 c 258
EndSplineSet
EndChar

StartChar: comma
Encoding: 44 44 65
Width: 540
VWidth: 1920
Flags: HMW
LayerCount: 2
Fore
SplineSet
240 -211 m 262
 239 -211 l 262
 231 -211 229 -203 231 -193 c 270
 267 0 l 261
 265 0 l 262
 252 0 248 5 248 19 c 262
 248 193 l 262
 248 205 255 213 268 213 c 262
 272 213 l 262
 285 213 293 205 293 193 c 262
 293 38 l 262
 293 27 288 8 286 -3 c 262
 254 -191 l 262
 251 -206 247 -211 240 -211 c 262
EndSplineSet
EndChar

StartChar: exclam
Encoding: 33 33 67
Width: 540
VWidth: 1920
Flags: HMW
LayerCount: 2
Fore
SplineSet
272 -3 m 262
 268 -3 l 262
 255 -3 247 6 247 18 c 262
 247 192 l 262
 247 204 255 213 268 213 c 262
 272 213 l 262
 285 213 293 204 293 192 c 262
 293 18 l 262
 293 6 285 -3 272 -3 c 262
255 957 m 262
 255 1434 l 262
 255 1447 260 1453 269 1453 c 262
 271 1453 l 262
 280 1453 285 1447 285 1434 c 262
 285 957 l 262
 285 946 283 855 283 844 c 262
 281 444 l 262
 281 433 279 428 271 428 c 262
 269 428 l 262
 261 428 259 433 259 444 c 262
 257 844 l 262
 257 855 255 946 255 957 c 262
EndSplineSet
EndChar

StartChar: quotesingle
Encoding: 39 39 70
Width: 370
VWidth: 1920
Flags: HMW
LayerCount: 2
Fore
SplineSet
186 930 m 258
 185 930 l 258
 177 930 173 934 173 944 c 258
 171 1146 l 258
 171 1187 168 1208 168 1239 c 258
 168 1404 l 258
 168 1416 172 1423 184 1423 c 262
 186 1423 l 262
 198 1423 202 1416 202 1404 c 258
 202 1239 l 258
 202 1208 199 1187 199 1146 c 258
 197 944 l 258
 197 934 194 930 186 930 c 258
EndSplineSet
EndChar

StartChar: question
Encoding: 63 63 71
Width: 1080
VWidth: 1920
Flags: HMW
LayerCount: 2
Fore
SplineSet
582 -3 m 258
 578 -3 l 258
 565 -3 557 6 557 18 c 258
 557 192 l 258
 557 204 565 213 578 213 c 258
 582 213 l 258
 595 213 603 204 603 192 c 258
 603 18 l 258
 603 6 595 -3 582 -3 c 258
571 397 m 262
 569 397 l 262
 560 397 554 403 554 412 c 260
 574 732 895 779 895 1063 c 262
 895 1098 l 262
 895 1329 786 1455 589 1455 c 260
 369 1455 255 1296 255 1052 c 262
 255 968 l 262
 255 955 252 949 241 949 c 262
 240 949 l 262
 229 949 225 955 225 968 c 262
 225 1052 l 262
 225 1317 342 1485 589 1485 c 260
 806 1485 925 1354 925 1103 c 262
 925 1078 l 262
 925 755 607 715 587 411 c 260
 586 403 580 397 571 397 c 262
EndSplineSet
EndChar

StartChar: parenleft
Encoding: 40 40 72
Width: 535
VWidth: 2048
Flags: HMW
LayerCount: 2
Fore
SplineSet
130 838 m 262
 130 1243 239 1561 489 1618 c 260
 499 1620 504 1618 504 1609 c 262
 504 1608 l 262
 504 1599 500 1598 491 1595 c 260
 272 1523 165 1239 165 838 c 262
 165 412 l 262
 165 11 272 -273 491 -345 c 260
 500 -348 505 -349 505 -358 c 262
 505 -359 l 262
 505 -368 499 -370 489 -368 c 260
 239 -311 130 7 130 412 c 262
 130 838 l 262
EndSplineSet
EndChar

StartChar: parenright
Encoding: 41 41 73
Width: 535
VWidth: 2048
Flags: HMW
LayerCount: 2
Fore
SplineSet
405 412 m 262
 405 7 296 -311 46 -368 c 260
 36 -370 31 -368 31 -359 c 262
 31 -358 l 262
 31 -349 35 -348 44 -345 c 260
 263 -273 370 11 370 412 c 262
 370 838 l 262
 370 1239 263 1523 44 1595 c 260
 35 1598 30 1599 30 1608 c 262
 30 1609 l 262
 30 1618 36 1620 46 1618 c 260
 296 1561 405 1243 405 838 c 262
 405 412 l 262
EndSplineSet
EndChar

StartChar: asterisk
Encoding: 42 42 74
Width: 914
VWidth: 2048
Flags: HMW
LayerCount: 2
Back
SplineSet
462 1020 m 261
 452 1020 l 261
 439 1370 l 6
 438.751281204 1376.69627527 438.733662078 1383.34155195 439 1390 c 6
 441 1440 l 6
 441.274315782 1446.85789456 445 1450 452 1450 c 6
 462 1450 l 6
 469 1450 472.725684218 1446.85789456 473 1440 c 6
 475 1390 l 6
 475.266312962 1383.34217596 475.248740322 1376.69685482 475 1370 c 6
 462 1020 l 261
EndSplineSet
Fore
SplineSet
459 1015 m 257
 455 1025 l 257
 781 1143 l 258
 791 1146 797 1150 805 1152 c 258
 846 1164 l 258
 856 1167 865 1165 868 1155 c 258
 869 1153 l 258
 872 1143 867 1135 857 1132 c 258
 816 1118 l 258
 807 1115 801 1114 791 1111 c 258
 459 1015 l 257
453 1017 m 257
 461 1023 l 257
 674 750 l 258
 680 741 685 736 690 730 c 258
 715 694 l 258
 721 686 721 676 712 670 c 258
 711 669 l 258
 702 663 693 666 687 674 c 258
 661 708 l 258
 656 715 653 721 647 730 c 258
 453 1017 l 257
453 1023 m 257
 461 1017 l 257
 267 730 l 258
 261 721 258 714 253 708 c 258
 227 674 l 258
 221 666 212 663 203 669 c 258
 202 670 l 258
 193 676 193 686 199 694 c 258
 224 730 l 258
 229 737 234 741 240 750 c 258
 453 1023 l 257
459 1025 m 257
 455 1015 l 257
 123 1111 l 258
 113 1114 106 1115 98 1118 c 258
 57 1132 l 258
 47 1135 40 1144 45 1153 c 258
 46 1155 l 258
 51 1164 58 1167 68 1164 c 258
 109 1152 l 258
 118 1149 123 1147 133 1143 c 258
 459 1025 l 257
462 1020 m 257
 452 1020 l 257
 440 1366 l 258
 440 1377 439 1384 439 1392 c 258
 440 1435 l 258
 440 1445 445 1453 456 1453 c 258
 458 1453 l 258
 469 1453 474 1445 474 1435 c 258
 475 1392 l 258
 475 1383 474 1377 474 1366 c 258
 462 1020 l 257
EndSplineSet
EndChar

StartChar: at
Encoding: 64 64 75
Width: 1990
VWidth: 1920
Flags: HMW
LayerCount: 2
Fore
SplineSet
1275 492 m 257
 1275 202 1158 40 961 40 c 256
 794 40 645 157 645 497 c 258
 645 528 l 258
 645 848 784 985 951 985 c 256
 1158 985 1275 823 1275 533 c 257
 1255 533 l 257
 1255 783 1148 955 951 955 c 256
 804 955 675 833 675 523 c 258
 675 492 l 258
 675 182 814 70 961 70 c 256
 1148 70 1255 242 1255 492 c 257
 1275 492 l 257
1328 -258 m 256
 1259 -317 1144 -360 985 -360 c 256
 458 -360 180 13 180 493 c 258
 180 583 l 258
 180 1093 528 1435 1025 1435 c 256
 1592 1435 1810 1024 1810 633 c 258
 1810 543 l 258
 1810 183 1677 40 1490 40 c 256
 1283 40 1255 185 1255 405 c 258
 1255 595 l 257
 1255 968 l 258
 1255 978 1261 985 1270 985 c 258
 1271 985 l 258
 1280 985 1285 981 1285 970 c 258
 1285 405 l 258
 1285 211 1303 70 1490 70 c 256
 1707 70 1780 303 1780 543 c 258
 1780 633 l 258
 1780 1003 1572 1405 1025 1405 c 256
 538 1405 210 1043 210 593 c 258
 210 483 l 258
 210 43 458 -330 985 -330 c 256
 1146 -330 1244 -283 1315 -228 c 256
 1326 -220 1335 -222 1339 -231 c 258
 1340 -233 l 258
 1344 -242 1339 -250 1328 -258 c 256
EndSplineSet
EndChar

StartChar: dollar
Encoding: 36 36 76
Width: 1110
VWidth: 1920
Flags: HMW
LayerCount: 2
Fore
SplineSet
147 511 m 258
 149 511 l 258
 156 511 165 506 165 493 c 258
 165 427 l 258
 165 198 279 -5 560 -5 c 256
 829 -5 933 165 933 345 c 256
 933 492 842 615 538 684 c 256
 269 746 170 885 170 1063 c 256
 170 1293 303 1435 540 1435 c 256
 814 1435 920 1256 920 1041 c 258
 920 977 l 258
 920 965 912 960 903 960 c 258
 902 960 l 262
 893 960 885 964 885 976 c 258
 885 1031 l 258
 885 1236 785 1405 540 1405 c 256
 333 1405 208 1283 208 1063 c 256
 208 902 290 774 548 715 c 256
 847 647 970 515 970 348 c 256
 970 152 870 -35 560 -35 c 256
 252 -35 131 183 131 418 c 258
 131 492 l 258
 131 505 140 511 147 511 c 258
549 1590 m 258
 551 1590 l 258
 559 1590 565 1586 565 1576 c 258
 565 -176 l 258
 565 -186 559 -190 551 -190 c 258
 549 -190 l 258
 541 -190 535 -186 535 -176 c 258
 535 1576 l 258
 535 1586 541 1590 549 1590 c 258
EndSplineSet
EndChar

StartChar: numbersign
Encoding: 35 35 77
Width: 1300
VWidth: 1920
Flags: HMW
LayerCount: 2
Fore
SplineSet
84 460 m 258
 1136 460 l 258
 1148 460 1153 456 1153 446 c 258
 1153 444 l 258
 1153 434 1148 430 1136 430 c 258
 84 430 l 258
 72 430 67 434 67 444 c 258
 67 446 l 258
 67 456 72 460 84 460 c 258
164 1050 m 258
 1216 1050 l 258
 1228 1050 1233 1046 1233 1036 c 258
 1233 1034 l 258
 1233 1024 1228 1020 1216 1020 c 258
 164 1020 l 258
 152 1020 147 1024 147 1034 c 258
 147 1036 l 258
 147 1046 152 1050 164 1050 c 258
993 1403 m 262
 994 1403 l 262
 1008 1403 1010 1396 1006 1382 c 258
 683 16 l 258
 680 3 679 -3 665 -3 c 258
 664 -3 l 258
 650 -3 651 5 654 18 c 258
 977 1384 l 258
 980 1396 979 1403 993 1403 c 262
613 1403 m 258
 614 1403 l 258
 625 1403 630 1396 626 1382 c 258
 303 16 l 258
 300 3 296 -3 285 -3 c 258
 284 -3 l 258
 274 -3 271 5 274 18 c 258
 597 1384 l 258
 600 1396 602 1403 613 1403 c 258
EndSplineSet
EndChar

StartChar: slash
Encoding: 47 47 78
Width: 840
VWidth: 2048
Flags: HMW
LayerCount: 2
Fore
SplineSet
742 1379 m 262
 102 -84 l 262
 96 -98 92 -103 83 -103 c 262
 82 -103 l 262
 70 -103 67 -95 74 -79 c 262
 713 1384 l 262
 719 1398 723 1403 732 1403 c 262
 733 1403 l 262
 742 1403 749 1395 742 1379 c 262
EndSplineSet
EndChar

StartChar: percent
Encoding: 37 37 79
Width: 1755
VWidth: 2048
Flags: HMW
LayerCount: 2
Fore
SplineSet
100 1083 m 258
 100 1118 l 258
 100 1308 258 1435 435 1435 c 256
 612 1435 780 1308 780 1118 c 258
 780 1083 l 258
 780 893 612 765 435 765 c 256
 258 765 100 893 100 1083 c 258
135 1083 m 258
 135 913 278 805 435 805 c 256
 602 805 745 913 745 1083 c 258
 745 1118 l 258
 745 1288 602 1395 435 1395 c 256
 278 1395 135 1288 135 1118 c 258
 135 1083 l 258
975 283 m 258
 975 318 l 258
 975 508 1133 635 1310 635 c 256
 1487 635 1655 508 1655 318 c 258
 1655 283 l 258
 1655 93 1487 -35 1310 -35 c 256
 1133 -35 975 93 975 283 c 258
1010 283 m 258
 1010 113 1153 5 1310 5 c 256
 1467 5 1620 113 1620 283 c 258
 1620 318 l 258
 1620 488 1467 595 1310 595 c 256
 1153 595 1010 488 1010 318 c 258
 1010 283 l 258
1374 1381 m 258
 420 16 l 258
 411 3 406 -3 395 -3 c 258
 393 -3 l 258
 381 -3 372 6 381 19 c 258
 1335 1384 l 258
 1343 1398 1349 1403 1360 1403 c 258
 1361 1403 l 258
 1374 1403 1382 1395 1374 1381 c 258
EndSplineSet
EndChar

StartChar: hyphen
Encoding: 45 45 80
Width: 570
VWidth: 1920
Flags: HMW
LayerCount: 2
Fore
SplineSet
37 610 m 258
 37 615 l 258
 37 625 43 630 55 630 c 258
 515 630 l 258
 527 630 533 625 533 615 c 258
 533 610 l 258
 533 600 527 595 515 595 c 258
 55 595 l 258
 43 595 37 600 37 610 c 258
EndSplineSet
EndChar

StartChar: underscore
Encoding: 95 95 81
Width: 900
VWidth: 1920
Flags: HMW
LayerCount: 2
Fore
SplineSet
-3 -20 m 258
 -3 -15 l 258
 -3 -5 3 0 15 0 c 258
 885 0 l 258
 897 0 903 -5 903 -15 c 258
 903 -20 l 258
 903 -30 897 -35 885 -35 c 258
 15 -35 l 258
 3 -35 -3 -30 -3 -20 c 258
EndSplineSet
EndChar

StartChar: plus
Encoding: 43 43 82
Width: 1040
VWidth: 1920
Flags: HMW
LayerCount: 2
Fore
SplineSet
42 690 m 258
 42 695 l 258
 42 705 48 710 60 710 c 258
 980 710 l 258
 992 710 998 705 998 695 c 258
 998 690 l 258
 998 680 992 675 980 675 c 258
 60 675 l 258
 48 675 42 680 42 690 c 258
519 1193 m 258
 521 1193 l 258
 531 1193 535 1187 535 1175 c 258
 535 185 l 258
 535 173 531 167 521 167 c 262
 519 167 l 262
 509 167 505 173 505 185 c 258
 505 1175 l 258
 505 1187 509 1193 519 1193 c 258
EndSplineSet
EndChar

StartChar: equal
Encoding: 61 61 83
Width: 1180
VWidth: 1920
Flags: HMW
LayerCount: 2
Fore
SplineSet
147 347 m 258
 147 348 l 258
 147 358 153 360 165 360 c 258
 1015 360 l 258
 1027 360 1033 358 1033 348 c 258
 1033 347 l 258
 1033 337 1027 335 1015 335 c 258
 165 335 l 258
 153 335 147 337 147 347 c 258
147 647 m 262
 147 648 l 262
 147 658 153 660 165 660 c 262
 1015 660 l 262
 1027 660 1033 658 1033 648 c 262
 1033 647 l 262
 1033 637 1027 635 1015 635 c 262
 165 635 l 262
 153 635 147 637 147 647 c 262
EndSplineSet
EndChar

StartChar: less
Encoding: 60 60 84
Width: 1010
VWidth: 1920
Flags: HMW
LayerCount: 2
Fore
SplineSet
844 160 m 262
 84 571 l 262
 72 577 66 585 66 595 c 262
 66 605 l 262
 66 615 72 623 84 629 c 262
 844 1040 l 262
 856 1047 865 1043 865 1032 c 262
 865 1031 l 262
 865 1020 857 1017 844 1010 c 262
 89 600 l 261
 844 190 l 262
 857 183 865 180 865 169 c 262
 865 168 l 262
 865 157 856 153 844 160 c 262
EndSplineSet
EndChar

StartChar: greater
Encoding: 62 62 85
Width: 1010
VWidth: 1920
Flags: HMW
LayerCount: 2
Fore
SplineSet
166 1040 m 262
 926 629 l 262
 938 623 944 615 944 605 c 262
 944 595 l 262
 944 585 938 577 926 571 c 262
 166 160 l 262
 154 153 145 157 145 168 c 262
 145 169 l 262
 145 180 153 183 166 190 c 262
 921 600 l 261
 166 1010 l 262
 153 1017 145 1020 145 1031 c 262
 145 1032 l 262
 145 1043 154 1047 166 1040 c 262
EndSplineSet
EndChar

StartChar: backslash
Encoding: 92 92 86
Width: 840
VWidth: 2048
Flags: HMW
LayerCount: 2
Fore
SplineSet
98 1379 m 258
 91 1395 98 1403 107 1403 c 258
 108 1403 l 258
 117 1403 121 1398 127 1384 c 258
 766 -79 l 258
 773 -95 770 -103 758 -103 c 258
 757 -103 l 258
 748 -103 744 -98 738 -84 c 258
 98 1379 l 258
EndSplineSet
EndChar

StartChar: bracketleft
Encoding: 91 91 87
Width: 550
VWidth: 1920
Flags: HMW
LayerCount: 2
Fore
SplineSet
180 1570 m 257
 180 -330 l 257
 483 -330 l 258
 496 -330 502 -333 502 -344 c 262
 502 -345 l 262
 502 -356 496 -360 483 -360 c 258
 174 -360 l 258
 158 -360 150 -352 150 -336 c 258
 150 1576 l 258
 150 1592 158 1600 174 1600 c 258
 483 1600 l 258
 496 1600 502 1597 502 1586 c 258
 502 1585 l 258
 502 1574 496 1570 483 1570 c 258
 180 1570 l 257
EndSplineSet
EndChar

StartChar: braceleft
Encoding: 123 123 88
Width: 575
VWidth: 2048
Flags: HMW
LayerCount: 2
Fore
SplineSet
215 1278 m 258
 215 1505 269 1598 459 1600 c 256
 472 1600 478 1595 478 1586 c 258
 478 1582 l 258
 478 1572 471 1570 460 1569 c 256
 286 1564 250 1482 250 1278 c 258
 250 956 l 258
 250 771 192 668 36 620 c 257
 192 572 250 469 250 284 c 258
 250 -38 l 258
 250 -241 286 -323 458 -329 c 256
 470 -330 478 -332 478 -342 c 258
 478 -346 l 258
 478 -355 472 -360 457 -360 c 256
 269 -356 215 -265 215 -38 c 258
 215 284 l 258
 215 497 120 569 25 601 c 256
 14 605 9 609 9 619 c 258
 9 620 l 258
 9 630 14 635 23 638 c 256
 122 671 215 732 215 956 c 258
 215 1278 l 258
EndSplineSet
EndChar

StartChar: bracketright
Encoding: 93 93 89
Width: 550
VWidth: 1920
Flags: HMW
LayerCount: 2
Fore
SplineSet
370 -330 m 257
 370 1570 l 257
 67 1570 l 258
 54 1570 48 1573 48 1584 c 258
 48 1585 l 258
 48 1596 54 1600 67 1600 c 258
 376 1600 l 258
 392 1600 400 1592 400 1576 c 258
 400 -336 l 258
 400 -352 392 -360 376 -360 c 258
 67 -360 l 258
 54 -360 48 -356 48 -345 c 262
 48 -344 l 262
 48 -333 54 -330 67 -330 c 258
 370 -330 l 257
EndSplineSet
EndChar

StartChar: braceright
Encoding: 125 125 90
Width: 575
VWidth: 2048
Flags: HMW
LayerCount: 2
Fore
SplineSet
360 -38 m 258
 360 -265 306 -358 116 -360 c 256
 103 -360 97 -355 97 -346 c 258
 97 -342 l 258
 97 -332 105 -330 116 -329 c 256
 290 -324 325 -242 325 -38 c 258
 325 284 l 258
 325 469 383 572 539 620 c 257
 383 668 325 771 325 956 c 258
 325 1278 l 258
 325 1481 289 1563 117 1569 c 256
 105 1570 97 1572 97 1582 c 258
 97 1586 l 258
 97 1595 103 1600 118 1600 c 256
 306 1596 360 1505 360 1278 c 258
 360 956 l 258
 360 743 455 671 550 639 c 256
 561 635 566 631 566 621 c 262
 566 620 l 262
 566 610 561 605 552 602 c 256
 453 569 360 508 360 284 c 258
 360 -38 l 258
EndSplineSet
EndChar

StartChar: bar
Encoding: 124 124 91
Width: 415
VWidth: 1920
Flags: HMW
LayerCount: 2
Fore
SplineSet
207 1603 m 262
 208 1603 l 262
 219 1603 223 1597 223 1584 c 258
 223 -344 l 258
 223 -357 220 -363 209 -363 c 258
 207 -363 l 258
 196 -363 193 -357 193 -344 c 258
 193 1584 l 258
 193 1597 196 1603 207 1603 c 262
EndSplineSet
EndChar

StartChar: asciitilde
Encoding: 126 126 92
Width: 1330
VWidth: 2048
Flags: HMW
LayerCount: 2
Fore
SplineSet
422 779 m 256
 270 779 215 640 211 453 c 256
 211 441 206 435 195 435 c 258
 194 435 l 258
 183 435 181 441 181 453 c 256
 186 655 251 809 422 809 c 256
 631 809 717 432 909 432 c 256
 1061 432 1116 570 1120 757 c 260
 1120 770 1123 776 1134 776 c 262
 1135 776 l 262
 1146 776 1149 770 1149 757 c 260
 1144 555 1079 402 909 402 c 256
 700 402 614 779 422 779 c 256
EndSplineSet
EndChar

StartChar: asciicircum
Encoding: 94 94 93
Width: 820
VWidth: 1920
Flags: HMW
LayerCount: 2
Fore
SplineSet
410 1361 m 257
 156 746 l 258
 152 735 142 727 131 727 c 258
 128 727 l 258
 116 727 112 737 118 750 c 258
 383 1384 l 258
 389 1398 394 1402 405 1402 c 258
 415 1402 l 258
 426 1402 431 1398 437 1384 c 258
 702 750 l 258
 708 737 709 727 692 727 c 258
 690 727 l 262
 676 727 668 735 664 746 c 258
 410 1361 l 257
EndSplineSet
EndChar

StartChar: figuredash
Encoding: 8210 8210 108
Width: 1150
VWidth: 2048
Flags: HMW
LayerCount: 2
Fore
SplineSet
37 610 m 262
 37 615 l 262
 37 625 43 630 55 630 c 262
 1095 630 l 262
 1107 630 1113 625 1113 615 c 262
 1113 610 l 262
 1113 600 1107 595 1095 595 c 262
 55 595 l 262
 43 595 37 600 37 610 c 262
EndSplineSet
EndChar

StartChar: endash
Encoding: 8211 8211 109
Width: 1100
VWidth: 2048
Flags: HMW
LayerCount: 2
Fore
SplineSet
37 610 m 262
 37 615 l 262
 37 625 43 630 55 630 c 262
 1045 630 l 262
 1057 630 1063 625 1063 615 c 262
 1063 610 l 262
 1063 600 1057 595 1045 595 c 262
 55 595 l 262
 43 595 37 600 37 610 c 262
EndSplineSet
EndChar

StartChar: emdash
Encoding: 8212 8212 110
Width: 2200
VWidth: 2048
Flags: HMW
LayerCount: 2
Fore
SplineSet
37 610 m 258
 37 615 l 258
 37 625 43 630 55 630 c 258
 2145 630 l 258
 2157 630 2163 625 2163 615 c 258
 2163 610 l 258
 2163 600 2157 595 2145 595 c 258
 55 595 l 258
 43 595 37 600 37 610 c 258
EndSplineSet
EndChar

StartChar: uni2015
Encoding: 8213 8213 111
Width: 2360
VWidth: 2048
Flags: HMW
LayerCount: 2
Fore
SplineSet
37 610 m 258
 37 615 l 258
 37 625 43 630 55 630 c 258
 2305 630 l 258
 2317 630 2323 625 2323 615 c 258
 2323 610 l 258
 2323 600 2317 595 2305 595 c 258
 55 595 l 258
 43 595 37 600 37 610 c 258
EndSplineSet
EndChar

StartChar: quoteleft
Encoding: 8216 8216 114
Width: 540
VWidth: 1920
Flags: HMW
LayerCount: 2
Fore
SplineSet
278 1471 m 262
 279 1471 l 262
 287 1471 289 1463 287 1453 c 270
 251 1260 l 261
 253 1260 l 262
 266 1260 270 1255 270 1241 c 262
 270 1067 l 262
 270 1055 263 1047 250 1047 c 262
 246 1047 l 262
 233 1047 225 1055 225 1067 c 262
 225 1222 l 262
 225 1233 230 1252 232 1263 c 262
 264 1451 l 262
 267 1466 271 1471 278 1471 c 262
EndSplineSet
EndChar

StartChar: quotereversed
Encoding: 8219 8219 117
Width: 540
VWidth: 1920
Flags: HMW
LayerCount: 2
Fore
SplineSet
278 999 m 262
 271 999 267 1004 264 1019 c 262
 232 1207 l 262
 230 1218 225 1237 225 1248 c 262
 225 1403 l 262
 225 1415 233 1423 246 1423 c 262
 250 1423 l 262
 263 1423 270 1415 270 1403 c 262
 270 1229 l 262
 270 1215 266 1210 253 1210 c 262
 251 1210 l 261
 287 1017 l 278
 289 1007 287 999 279 999 c 262
 278 999 l 262
EndSplineSet
EndChar

StartChar: bullet
Encoding: 8226 8226 120
Width: 690
VWidth: 2048
Flags: HMW
LayerCount: 2
Fore
SplineSet
150 718 m 258
 150 773 l 258
 150 893 243 950 340 950 c 256
 437 950 540 893 540 773 c 258
 540 718 l 258
 540 598 437 540 340 540 c 256
 243 540 150 598 150 718 c 258
EndSplineSet
EndChar

StartChar: dagger
Encoding: 8224 8224 124
Width: 1130
VWidth: 1920
Flags: HMW
LayerCount: 2
Fore
SplineSet
67 1030 m 258
 67 1035 l 258
 67 1046 73 1050 86 1050 c 258
 1044 1050 l 258
 1057 1050 1063 1046 1063 1035 c 258
 1063 1030 l 258
 1063 1019 1057 1015 1044 1015 c 258
 86 1015 l 258
 73 1015 67 1019 67 1030 c 258
564 1403 m 258
 566 1403 l 258
 577 1403 580 1397 580 1384 c 258
 580 16 l 258
 580 3 577 -3 566 -3 c 262
 564 -3 l 262
 553 -3 550 3 550 16 c 258
 550 1384 l 258
 550 1397 553 1403 564 1403 c 258
EndSplineSet
EndChar

StartChar: daggerdbl
Encoding: 8225 8225 125
Width: 1130
VWidth: 1920
Flags: HMW
LayerCount: 2
Fore
SplineSet
67 15 m 258
 67 20 l 258
 67 31 73 35 86 35 c 258
 1044 35 l 258
 1057 35 1063 31 1063 20 c 258
 1063 15 l 258
 1063 4 1057 0 1044 0 c 258
 86 0 l 258
 73 0 67 4 67 15 c 258
67 1030 m 258
 67 1035 l 258
 67 1046 73 1050 86 1050 c 258
 1044 1050 l 258
 1057 1050 1063 1046 1063 1035 c 258
 1063 1030 l 258
 1063 1019 1057 1015 1044 1015 c 258
 86 1015 l 258
 73 1015 67 1019 67 1030 c 258
564 1403 m 258
 566 1403 l 258
 577 1403 580 1397 580 1384 c 258
 580 -344 l 258
 580 -357 577 -363 566 -363 c 262
 564 -363 l 262
 553 -363 550 -357 550 -344 c 258
 550 1384 l 258
 550 1397 553 1403 564 1403 c 258
EndSplineSet
EndChar

StartChar: perthousand
Encoding: 8240 8240 126
Width: 2555
VWidth: 2048
Flags: HMW
LayerCount: 2
Fore
SplineSet
1775 283 m 258
 1775 318 l 258
 1775 508 1933 635 2110 635 c 256
 2287 635 2455 508 2455 318 c 258
 2455 283 l 258
 2455 93 2287 -35 2110 -35 c 256
 1933 -35 1775 93 1775 283 c 258
1810 283 m 258
 1810 113 1953 5 2110 5 c 256
 2267 5 2420 113 2420 283 c 258
 2420 318 l 258
 2420 488 2267 595 2110 595 c 256
 1953 595 1810 488 1810 318 c 258
 1810 283 l 258
100 1083 m 258
 100 1118 l 258
 100 1308 258 1435 435 1435 c 256
 612 1435 780 1308 780 1118 c 258
 780 1083 l 258
 780 893 612 765 435 765 c 256
 258 765 100 893 100 1083 c 258
135 1083 m 258
 135 913 278 805 435 805 c 256
 602 805 745 913 745 1083 c 258
 745 1118 l 258
 745 1288 602 1395 435 1395 c 256
 278 1395 135 1288 135 1118 c 258
 135 1083 l 258
975 283 m 258
 975 318 l 258
 975 508 1133 635 1310 635 c 256
 1487 635 1655 508 1655 318 c 258
 1655 283 l 258
 1655 93 1487 -35 1310 -35 c 256
 1133 -35 975 93 975 283 c 258
1010 283 m 258
 1010 113 1153 5 1310 5 c 256
 1467 5 1620 113 1620 283 c 258
 1620 318 l 258
 1620 488 1467 595 1310 595 c 256
 1153 595 1010 488 1010 318 c 258
 1010 283 l 258
1374 1381 m 258
 420 16 l 258
 411 3 406 -3 395 -3 c 258
 393 -3 l 258
 381 -3 372 6 381 19 c 258
 1335 1384 l 258
 1343 1398 1349 1403 1360 1403 c 258
 1361 1403 l 258
 1374 1403 1382 1395 1374 1381 c 258
EndSplineSet
EndChar

StartChar: uni2031
Encoding: 8241 8241 127
Width: 3335
VWidth: 2048
Flags: HMW
LayerCount: 2
Fore
SplineSet
2555 283 m 258
 2555 318 l 258
 2555 508 2713 635 2890 635 c 256
 3067 635 3235 508 3235 318 c 258
 3235 283 l 258
 3235 93 3067 -35 2890 -35 c 256
 2713 -35 2555 93 2555 283 c 258
2590 283 m 258
 2590 113 2733 5 2890 5 c 256
 3047 5 3200 113 3200 283 c 258
 3200 318 l 258
 3200 488 3047 595 2890 595 c 256
 2733 595 2590 488 2590 318 c 258
 2590 283 l 258
1775 283 m 258
 1775 318 l 258
 1775 508 1933 635 2110 635 c 256
 2287 635 2455 508 2455 318 c 258
 2455 283 l 258
 2455 93 2287 -35 2110 -35 c 256
 1933 -35 1775 93 1775 283 c 258
1810 283 m 258
 1810 113 1953 5 2110 5 c 256
 2267 5 2420 113 2420 283 c 258
 2420 318 l 258
 2420 488 2267 595 2110 595 c 256
 1953 595 1810 488 1810 318 c 258
 1810 283 l 258
100 1083 m 258
 100 1118 l 258
 100 1308 258 1435 435 1435 c 256
 612 1435 780 1308 780 1118 c 258
 780 1083 l 258
 780 893 612 765 435 765 c 256
 258 765 100 893 100 1083 c 258
135 1083 m 258
 135 913 278 805 435 805 c 256
 602 805 745 913 745 1083 c 258
 745 1118 l 258
 745 1288 602 1395 435 1395 c 256
 278 1395 135 1288 135 1118 c 258
 135 1083 l 258
975 283 m 258
 975 318 l 258
 975 508 1133 635 1310 635 c 256
 1487 635 1655 508 1655 318 c 258
 1655 283 l 258
 1655 93 1487 -35 1310 -35 c 256
 1133 -35 975 93 975 283 c 258
1010 283 m 258
 1010 113 1153 5 1310 5 c 256
 1467 5 1620 113 1620 283 c 258
 1620 318 l 258
 1620 488 1467 595 1310 595 c 256
 1153 595 1010 488 1010 318 c 258
 1010 283 l 258
1374 1381 m 258
 420 16 l 258
 411 3 406 -3 395 -3 c 258
 393 -3 l 258
 381 -3 372 6 381 19 c 258
 1335 1384 l 258
 1343 1398 1349 1403 1360 1403 c 258
 1361 1403 l 258
 1374 1403 1382 1395 1374 1381 c 258
EndSplineSet
EndChar

StartChar: fraction
Encoding: 8260 8260 128
Width: 930
VWidth: 1920
Flags: HMW
LayerCount: 2
Fore
SplineSet
815 1277 m 2
 818 1275 l 2
 822.211914062 1270.78808594 822.779059065 1265.1360722 819 1259 c 2
 144 163 l 2
 140.220940935 156.8639278 129.5 154.5 124 160 c 10
 123 161 l 2
 119.172851562 164.827148438 119 171 123 177 c 10
 798 1273 l 2
 801.779059065 1279.1360722 810.454477163 1280.03034856 815 1277 c 2
EndSplineSet
EndChar

StartChar: uni2074
Encoding: 8308 8308 129
Width: 676
VWidth: 1920
Flags: HMW
LayerCount: 2
Fore
SplineSet
646 884 m 2
 646 882 l 2
 646 873 638 868 624 868 c 2
 502 868 l 257
 502 646 l 2
 502 630 493 625 486 625 c 2
 484 625 l 2
 477 625 468 630 468 646 c 2
 468 868 l 257
 58 868 l 2
 44 868 37 872 37 884 c 2
 37 894 l 2
 37 898 38.5590219466 908.86037514 44 916 c 2
 454 1454 l 2
 462.862317067 1465.62908922 470 1470 482 1470 c 2
 486 1470 l 2
 495 1470 502 1463 502 1454 c 2
 502 898 l 257
 624 898 l 2
 638 898 646 893 646 884 c 2
474 898 m 257
 474 1446 l 257
 63 898 l 257
 474 898 l 257
EndSplineSet
EndChar

StartChar: uni2073
Encoding: 8307 8307 130
Width: 721
VWidth: 1920
Flags: HMW
LayerCount: 2
Fore
SplineSet
126 878 m 2
 128 878 l 2
 139 878 144 870 144 858 c 2
 144 826 l 2
 144 704 225 639 350 639 c 0
 500 639 577 713 577 841 c 2
 577 898 l 2
 577 1016 496 1066 350 1066 c 2
 312 1066 l 2
 304 1066 296 1071 296 1080 c 2
 296 1082 l 2
 296 1091 304 1096 312 1096 c 2
 338 1096 l 2
 488 1096 554 1142 554 1244 c 2
 554 1283 l 2
 554 1389 498 1461 358 1461 c 0
 228 1461 159 1391 159 1261 c 2
 159 1214 l 2
 159 1204 155 1197 146 1197 c 2
 145 1197 l 2
 136 1197 131 1204 131 1214 c 2
 131 1261 l 2
 131 1401 200 1491 358 1491 c 0
 516 1491 581 1418 581 1280 c 2
 581 1265 l 2
 581 1115 492 1077 338 1077 c 1
 352 1082 l 1
 506 1082 611 1033 611 883 c 2
 611 838 l 2
 611 694 528 609 350 609 c 0
 199 609 110 689 110 826 c 2
 110 858 l 2
 110 870 115 878 126 878 c 2
EndSplineSet
EndChar

StartChar: uni2072
Encoding: 8306 8306 131
Width: 692
VWidth: 1920
Flags: HMW
LayerCount: 2
Fore
SplineSet
110 693 m 258
 110 909 553 1029 553 1257 c 258
 553 1284 l 258
 553 1400 501 1468 367 1468 c 256
 225 1468 153 1392 153 1238 c 258
 153 1194 l 2
 153 1180 148 1173 140 1173 c 2
 138 1173 l 2
 130 1173 125 1180 125 1194 c 2
 125 1238 l 258
 125 1402 191 1498 367 1498 c 256
 525 1498 581 1419 581 1281 c 258
 581 1254 l 258
 581 1016 132 868 132 675 c 258
 132 669 l 257
 566 669 l 2
 580 669 585 663 585 654 c 2
 585 652 l 2
 585 643 580 637 566 637 c 2
 124 637 l 2
 117 637 110 644 110 653 c 2
 110 693 l 258
EndSplineSet
EndChar

StartChar: uni2070
Encoding: 8304 8304 132
Width: 770
VWidth: 1920
Flags: HMW
LayerCount: 2
Fore
SplineSet
80 923 m 258
 80 1178 l 258
 80 1373 194 1491 385 1491 c 256
 576 1491 690 1373 690 1178 c 258
 690 923 l 258
 690 727 576 609 385 609 c 256
 194 609 80 727 80 923 c 258
114 935 m 258
 114 756 215 639 385 639 c 256
 555 639 656 756 656 935 c 258
 656 1166 l 258
 656 1345 555 1461 385 1461 c 256
 215 1461 114 1345 114 1166 c 258
 114 935 l 258
EndSplineSet
EndChar

StartChar: uni2075
Encoding: 8309 8309 133
Width: 754
VWidth: 1920
Flags: HMW
LayerCount: 2
Fore
SplineSet
161 850 m 2
 162 850 l 2
 171 850 172 842 172 838 c 0
 180 694 237 632 375 632 c 0
 514 632 590 706 590 872 c 2
 590 917 l 2
 590 1087 510 1186 380 1186 c 0
 218 1186 215 1063 190 1021 c 0
 187.017562219 1015.98950453 183 1010 174 1010 c 2
 172 1010 l 2
 166 1010 161.826251693 1013.02596388 163 1021 c 2
 226 1449 l 2
 227.606028223 1459.91079491 232 1463 242 1463 c 2
 623 1463 l 2
 635 1463 639 1456 639 1452 c 2
 639 1450 l 2
 639 1440 621 1433 519 1433 c 2
 256 1433 l 1
 199 1070 l 1
 186 1070 l 1
 219 1144 224 1216 380 1216 c 0
 510 1216 624 1117 624 919 c 2
 624 880 l 2
 624 692 537 602 375 602 c 0
 215 602 159 694 150 838 c 0
 150 842 152 850 161 850 c 2
EndSplineSet
EndChar

StartChar: uni2076
Encoding: 8310 8310 134
Width: 836
VWidth: 1920
Flags: HMW
LayerCount: 2
Fore
SplineSet
447 1154 m 256
 257 1154 161 1015 161 925 c 258
 161 883 l 257
 145 943 l 257
 145 1101 323 1184 447 1184 c 256
 611 1184 706 1068 706 904 c 258
 706 874 l 258
 706 707 607 609 422 609 c 256
 236 609 130 730 130 946 c 258
 130 1136 l 258
 130 1364 221 1491 417 1491 c 256
 595 1491 673 1389 673 1279 c 258
 673 1271 l 2
 673 1258 668 1250 658 1250 c 2
 656 1250 l 2
 646 1250 641 1258 641 1271 c 2
 641 1279 l 258
 641 1379 585 1461 417 1461 c 256
 251 1461 161 1343 161 1133 c 258
 161 883 l 258
 161 789 230 639 422 639 c 256
 551 639 672 712 672 880 c 258
 672 904 l 258
 672 1054 601 1154 447 1154 c 256
EndSplineSet
EndChar

StartChar: uni2077
Encoding: 8311 8311 135
Width: 652
VWidth: 1920
Flags: HMW
LayerCount: 2
Fore
SplineSet
639 1440 m 2
 246 652 l 2
 237.615856733 635.189046071 230 627 220 627 c 2
 219 627 l 6
 204 627 194.101315195 640.45514786 204 660 c 2
 596 1434 l 257
 86 1434 l 2
 76 1434 67 1438 67 1450 c 2
 67 1454 l 2
 67 1465 76 1470 86 1470 c 2
 628 1470 l 2
 643 1470 648.379099052 1458.80592889 639 1440 c 2
EndSplineSet
EndChar

StartChar: uni2078
Encoding: 8312 8312 136
Width: 812
VWidth: 1920
Flags: HMW
LayerCount: 2
Fore
SplineSet
406 639 m 256
 584 639 638 707 638 855 c 258
 638 886 l 258
 638 1024 504 1056 406 1056 c 256
 308 1056 174 1024 174 886 c 258
 174 855 l 258
 174 707 228 639 406 639 c 256
406 1086 m 260
 576 1086 608 1163 608 1234 c 258
 608 1263 l 262
 608 1389 565 1461 406 1461 c 260
 257 1461 204 1389 204 1263 c 262
 204 1234 l 258
 204 1163 236 1086 406 1086 c 260
425 1076 m 257
 593 1076 672 1004 672 865 c 258
 672 838 l 258
 672 690 611 609 406 609 c 256
 201 609 140 690 140 838 c 258
 140 865 l 258
 140 1004 219 1076 387 1076 c 257
 389 1072 l 257
 229 1075 170 1132 170 1265 c 258
 170 1280 l 258
 170 1413 245 1491 406 1491 c 256
 567 1491 642 1413 642 1280 c 258
 642 1265 l 258
 642 1132 583 1075 423 1072 c 257
 425 1076 l 257
EndSplineSet
EndChar

StartChar: uni2079
Encoding: 8313 8313 137
Width: 826
VWidth: 1920
Flags: HMW
LayerCount: 2
Fore
SplineSet
379 946 m 256
 569 946 665 1085 665 1175 c 258
 665 1217 l 257
 681 1157 l 257
 681 999 503 916 379 916 c 256
 215 916 130 1032 130 1196 c 258
 130 1226 l 258
 130 1393 219 1491 404 1491 c 256
 590 1491 696 1370 696 1154 c 258
 696 964 l 258
 696 736 595 609 399 609 c 256
 221 609 133 711 133 821 c 258
 133 833 l 2
 133 846 139 853 148 853 c 2
 150 853 l 2
 159 853 165 846 165 833 c 2
 165 821 l 258
 165 721 231 639 399 639 c 256
 565 639 665 757 665 967 c 258
 665 1217 l 258
 665 1311 596 1461 404 1461 c 256
 275 1461 164 1388 164 1220 c 258
 164 1196 l 258
 164 1046 225 946 379 946 c 256
EndSplineSet
EndChar

StartChar: uni00B9
Encoding: 185 185 138
Width: 514
VWidth: 1920
Flags: HMW
LayerCount: 2
Fore
SplineSet
251 1456 m 0
 255 1468 258 1487 259 1497 c 0
 259.696526033 1503.96526033 262 1510 267 1510 c 2
 268 1510 l 2
 273 1510 275 1506 275 1496 c 2
 275 656 l 2
 275 645 268 640 261 640 c 2
 259 640 l 2
 252 640 245 645 245 656 c 2
 245 1423 l 6
 245 1440 249.658443058 1451.97532917 251 1456 c 0
EndSplineSet
EndChar

StartChar: cent
Encoding: 162 162 154
Width: 988
VWidth: 1920
Flags: HMW
LayerCount: 2
Fore
SplineSet
504 1242 m 2
 505 1242 l 2
 512 1242 517 1237 517 1230 c 2
 517 -180 l 2
 517 -187 512 -192 505 -192 c 6
 504 -192 l 6
 497 -192 492 -187 492 -180 c 2
 492 1230 l 2
 492 1237 497 1242 504 1242 c 2
EndSplineSet
Refer: 40 99 N 1 0 0 1 0 0 2
EndChar

StartChar: uni203D
Encoding: 8253 8253 157
Width: 1080
VWidth: 1920
Flags: HMW
LayerCount: 2
Fore
SplineSet
545 950 m 2
 545 1080 l 2
 545 1087 552 1093 559 1093 c 6
 562 1093 l 6
 569 1093 575 1087 575 1080 c 2
 575 950 l 2
 575 943 575 937 574 930 c 2
 576 410 l 2
 575 403 572 400 565 400 c 2
 565 400 l 2
 558 400 555 403 554 410 c 2
 546 930 l 2
 545 937 545 943 545 950 c 2
557 -3 m 258
 553 -3 l 258
 540 -3 532 6 532 18 c 258
 532 192 l 258
 532 204 540 213 553 213 c 258
 557 213 l 258
 570 213 578 204 578 192 c 258
 578 18 l 258
 578 6 570 -3 557 -3 c 258
569 400 m 2
 564 400 l 2
 556 400 554 403 554 409 c 0
 561 731 865 768 865 1043 c 258
 865 1068 l 258
 865 1268 796 1405 589 1405 c 256
 369 1405 275 1265 275 1052 c 258
 275 962 l 2
 275 955 268 947 261 947 c 2
 259 947 l 2
 252 947 245 955 245 962 c 2
 245 1052 l 258
 245 1276 352 1435 589 1435 c 256
 816 1435 895 1293 895 1073 c 258
 895 1048 l 258
 895 735 575 713 577 408 c 0
 577 403 576 400 569 400 c 2
EndSplineSet
EndChar

StartChar: ordfeminine
Encoding: 170 170 159
Width: 847
VWidth: 1920
Flags: HMW
LayerCount: 2
Fore
SplineSet
170 834 m 256
 170 720 218 639 346 639 c 256
 550 639 638 806 638 952 c 257
 658 902 l 257
 658 759 537 609 346 609 c 256
 197 609 140 709 140 834 c 256
 140 965 183 1040 419 1079 c 256
 544 1099 638 1159 638 1242 c 257
 648 1202 l 257
 648 1139 540 1074 426 1054 c 256
 218 1017 170 954 170 834 c 256
638 852 m 258
 638 1262 l 258
 638 1402 563 1459 438 1459 c 256
 279 1459 210 1363 199 1230 c 256
 198.171635627 1219.98432167 194 1215 184 1215 c 258
 183 1215 l 258
 173 1215 168.174907987 1220.74526592 170 1232 c 256
 194 1380 254 1489 438 1489 c 256
 598 1489 668 1415 668 1257 c 258
 668 852 l 258
 668 760 687 699 722 656 c 260
 729.361826313 646.95547053 725 639 715 639 c 262
 713 639 l 262
 703 639 694.955402461 646.68336269 689 654 c 260
 654 697 638 759 638 852 c 258
EndSplineSet
EndChar

StartChar: exclamdown
Encoding: 161 161 160
Width: 540
VWidth: 1920
Flags: HMW
LayerCount: 2
Fore
SplineSet
268 1053 m 258
 272 1053 l 258
 285 1053 293 1044 293 1032 c 258
 293 858 l 258
 293 846 285 837 272 837 c 258
 268 837 l 258
 255 837 247 846 247 858 c 258
 247 1032 l 258
 247 1044 255 1053 268 1053 c 258
285 93 m 258
 285 -384 l 258
 285 -397 280 -403 271 -403 c 258
 269 -403 l 258
 260 -403 255 -397 255 -384 c 258
 255 93 l 258
 255 104 257 195 257 206 c 258
 259 606 l 258
 259 617 261 622 269 622 c 258
 271 622 l 258
 279 622 281 617 281 606 c 258
 283 206 l 258
 283 195 285 104 285 93 c 258
EndSplineSet
EndChar

StartChar: AE
Encoding: 198 198 161
Width: 2200
VWidth: 1920
Flags: HMW
LayerCount: 2
Fore
SplineSet
500 530 m 257
 1160 530 l 257
 1160 500 l 257
 500 500 l 257
 500 530 l 257
1182 1400 m 1
 133 10 l 2
 125.297765442 -0.206011473698 119 -4 112 -4 c 2
 110 -4 l 2
 99 -4 91.6896612698 8.71904735592 101 21 c 2
 1129 1377 l 2
 1138.31012891 1389.28067587 1145 1400 1162 1400 c 2
 1182 1400 l 1
EndSplineSet
Refer: 16 69 N 1 0 0 1 920 0 2
EndChar

StartChar: questiondown
Encoding: 191 191 162
Width: 1080
VWidth: 1920
Flags: HMW
LayerCount: 2
Fore
SplineSet
580 1053 m 262
 584 1053 l 262
 597 1053 605 1044 605 1032 c 262
 605 858 l 262
 605 846 597 837 584 837 c 262
 580 837 l 262
 567 837 559 846 559 858 c 262
 559 1032 l 262
 559 1044 567 1053 580 1053 c 262
591 653 m 262
 593 653 l 262
 602 653 608 647 608 638 c 260
 588 318 267 271 267 -13 c 262
 267 -48 l 262
 267 -279 376 -405 573 -405 c 260
 793 -405 907 -246 907 -2 c 262
 907 82 l 262
 907 95 910 101 921 101 c 262
 922 101 l 262
 933 101 937 95 937 82 c 262
 937 -2 l 262
 937 -267 820 -435 573 -435 c 260
 356 -435 237 -304 237 -53 c 262
 237 -28 l 262
 237 295 555 335 575 639 c 260
 576 647 582 653 591 653 c 262
EndSplineSet
EndChar

StartChar: yen
Encoding: 165 165 163
Width: 1164
VWidth: 1920
Flags: HMW
LayerCount: 2
Fore
SplineSet
137 385 m 258
 137 390 l 258
 137 397 140 400 147 400 c 258
 1027 400 l 258
 1034 400 1037 397 1037 390 c 258
 1037 385 l 258
 1037 378 1034 375 1027 375 c 258
 147 375 l 258
 140 375 137 378 137 385 c 258
137 555 m 258
 137 560 l 258
 137 567 140 570 147 570 c 258
 1027 570 l 258
 1034 570 1037 567 1037 560 c 258
 1037 555 l 258
 1037 548 1034 545 1027 545 c 258
 147 545 l 258
 140 545 137 548 137 555 c 258
EndSplineSet
Refer: 36 89 N 1 0 0 1 0 0 2
EndChar

StartChar: gravecomb
Encoding: 768 768 164
Width: 0
Flags: HMW
AnchorPoint: "top" -563 1000 mark 0
LayerCount: 2
Fore
SplineSet
-516 1102 m 262
 -521 1102 l 262
 -530 1102 -540 1108 -549 1118 c 262
 -772 1380 l 262
 -782.270507812 1392.06738281 -772 1414 -750 1414 c 262
 -747 1414 l 262
 -736 1414 -723 1404 -710 1387 c 262
 -505 1121 l 262
 -497 1110 -507 1102 -516 1102 c 262
EndSplineSet
EndChar

StartChar: acutecomb
Encoding: 769 769 165
Width: 0
Flags: HMW
AnchorPoint: "top" -548 1000 mark 0
LayerCount: 2
Fore
SplineSet
-593 1102 m 262
 -602 1102 -612 1110 -604 1121 c 262
 -399 1387 l 262
 -386 1404 -373 1414 -362 1414 c 262
 -359 1414 l 262
 -337 1414 -326.729492188 1392.06738281 -337 1380 c 262
 -560 1118 l 262
 -569 1108 -579 1102 -588 1102 c 262
 -593 1102 l 262
EndSplineSet
EndChar

StartChar: uni0302
Encoding: 770 770 166
Width: 0
VWidth: 1920
Flags: HMW
AnchorPoint: "top" -559 1000 mark 0
LayerCount: 2
Fore
SplineSet
-560 1381 m 257
 -758 1110 l 2
 -762 1105 -771 1098 -778 1098 c 2
 -779 1098 l 2
 -786 1098 -790 1104 -786 1110 c 2
 -584 1390 l 2
 -579 1398 -573 1403 -561 1403 c 6
 -559 1403 l 2
 -547 1403 -541 1398 -536 1390 c 2
 -324 1110 l 2
 -320 1104 -319 1097 -331 1097 c 2
 -332 1097 l 2
 -342 1097 -348 1105 -352 1110 c 2
 -560 1381 l 257
EndSplineSet
EndChar

StartChar: tildecomb
Encoding: 771 771 167
Width: 0
Flags: HMW
AnchorPoint: "top" -578 1000 mark 0
LayerCount: 2
Fore
SplineSet
-718 1399 m 256
 -790 1399 -842 1350 -855 1217 c 0
 -856 1211 -860 1206 -867 1206 c 2
 -868 1206 l 2
 -875 1206 -880 1211 -880 1217 c 0
 -876 1355 -809 1429 -718 1429 c 256
 -579 1429 -533 1212 -411 1212 c 256
 -339 1212 -287 1261 -274 1393 c 0
 -273 1400 -269 1404 -262 1404 c 6
 -261 1404 l 6
 -254 1404 -250 1400 -250 1393 c 0
 -254 1255 -321 1182 -411 1182 c 256
 -550 1182 -596 1399 -718 1399 c 256
EndSplineSet
EndChar

StartChar: uni0304
Encoding: 772 772 168
Width: 0
VWidth: 1920
Flags: HMW
AnchorPoint: "top" -560 1000 mark 0
LayerCount: 2
Fore
SplineSet
-835 1252 m 10
 -835 1253 l 18
 -835 1261 -829 1270 -818 1270 c 10
 -308 1270 l 22
 -296 1270 -290 1261 -290 1253 c 10
 -290 1252 l 18
 -290 1244 -296 1235 -308 1235 c 14
 -818 1235 l 18
 -829 1235 -835 1244 -835 1252 c 10
EndSplineSet
EndChar

StartChar: uni0306
Encoding: 774 774 169
Width: 0
VWidth: 1920
Flags: HMW
AnchorPoint: "top" -560 1000 mark 0
LayerCount: 2
Fore
SplineSet
-560 1205 m 0
 -390 1205 -315 1319 -315 1427 c 0
 -315 1435 -310 1440 -303 1440 c 2
 -302 1440 l 2
 -295 1440 -289 1435 -290 1424 c 0
 -298 1282 -377 1175 -560 1175 c 0
 -743 1175 -824 1283 -830 1427 c 0
 -830 1435 -825 1440 -818 1440 c 2
 -817 1440 l 2
 -810 1440 -805 1435 -805 1425 c 0
 -804 1315 -728 1205 -560 1205 c 0
EndSplineSet
EndChar

StartChar: uni0307
Encoding: 775 775 170
Width: 0
Flags: HMW
AnchorPoint: "top" -548 1000 mark 0
LayerCount: 2
Fore
SplineSet
-545 1259 m 6
 -555 1259 l 6
 -572 1259 -587 1272 -587 1289 c 6
 -587 1301 l 6
 -587 1318 -572 1331 -555 1331 c 6
 -545 1331 l 6
 -528 1331 -513 1318 -513 1301 c 6
 -513 1289 l 6
 -513 1272 -528 1259 -545 1259 c 6
EndSplineSet
EndChar

StartChar: uni0308
Encoding: 776 776 171
Width: 0
Flags: HMW
AnchorPoint: "top" -548 1000 mark 0
LayerCount: 2
Fore
SplineSet
-652 1259 m 2
 -662 1259 l 2
 -679 1259 -694 1272 -694 1289 c 2
 -694 1301 l 2
 -694 1318 -679 1331 -662 1331 c 2
 -652 1331 l 2
 -635 1331 -620 1318 -620 1301 c 2
 -620 1289 l 2
 -620 1272 -635 1259 -652 1259 c 2
-447 1259 m 2
 -457 1259 l 2
 -474 1259 -489 1272 -489 1289 c 2
 -489 1301 l 2
 -489 1318 -474 1331 -457 1331 c 2
 -447 1331 l 2
 -430 1331 -415 1318 -415 1301 c 2
 -415 1289 l 2
 -415 1272 -430 1259 -447 1259 c 2
EndSplineSet
EndChar

StartChar: uni030A
Encoding: 778 778 172
Width: 0
Flags: HMW
AnchorPoint: "top" -554 1000 mark 0
LayerCount: 2
Fore
SplineSet
-360 1312 m 0
 -360 1208 -450 1122 -554 1122 c 0
 -660 1122 -750 1206 -750 1312 c 0
 -750 1414 -660 1502 -554 1502 c 0
 -448 1502 -360 1420 -360 1312 c 0
-390 1312 m 0
 -390 1408 -460 1472 -554 1472 c 0
 -648 1472 -720 1402 -720 1312 c 0
 -720 1218 -648 1152 -554 1152 c 0
 -462 1152 -390 1222 -390 1312 c 0
EndSplineSet
EndChar

StartChar: uni030B
Encoding: 779 779 173
Width: 0
Flags: HMW
AnchorPoint: "top" -618 1000 mark 0
LayerCount: 2
Fore
SplineSet
-473 1102 m 262
 -482 1102 -492 1110 -484 1121 c 262
 -279 1387 l 262
 -266 1404 -253 1414 -242 1414 c 262
 -239 1414 l 262
 -217 1414 -206.729492188 1392.06738281 -217 1380 c 262
 -440 1118 l 262
 -449 1108 -459 1102 -468 1102 c 262
 -473 1102 l 262
-743 1102 m 262
 -752 1102 -762 1110 -754 1121 c 262
 -549 1387 l 262
 -536 1404 -523 1414 -512 1414 c 262
 -509 1414 l 262
 -487 1414 -476.729492188 1392.06738281 -487 1380 c 262
 -710 1118 l 262
 -719 1108 -729 1102 -738 1102 c 262
 -743 1102 l 262
EndSplineSet
EndChar

StartChar: uni030C
Encoding: 780 780 174
Width: 0
Flags: HMW
AnchorPoint: "top" -554 1000 mark 0
LayerCount: 2
Fore
SplineSet
-554 1139 m 257
 -356 1410 l 2
 -352 1415 -346 1423 -339 1423 c 2
 -338 1423 l 2
 -331 1423 -324 1416 -328 1410 c 2
 -530 1130 l 6
 -535.507365525 1122.36602799 -543 1117 -553 1117 c 6
 -555 1117 l 6
 -565 1117 -572.328058114 1122.508756 -578 1130 c 6
 -790 1410 l 2
 -794 1416 -792 1423 -780 1423 c 2
 -779 1423 l 2
 -769 1423 -766 1415 -762 1410 c 2
 -554 1139 l 257
EndSplineSet
EndChar

StartChar: uni030F
Encoding: 783 783 175
Width: 0
Flags: HMW
AnchorPoint: "top" -508 1000 mark 0
LayerCount: 2
Fore
SplineSet
-625 1102 m 258
 -630 1102 l 258
 -639 1102 -649 1108 -658 1118 c 258
 -881 1380 l 258
 -891.270507812 1392.06738281 -881 1414 -859 1414 c 258
 -856 1414 l 258
 -845 1414 -832 1404 -819 1387 c 258
 -614 1121 l 258
 -606 1110 -616 1102 -625 1102 c 258
-355 1102 m 258
 -360 1102 l 258
 -369 1102 -379 1108 -388 1118 c 258
 -611 1380 l 258
 -621.270507812 1392.06738281 -611 1414 -589 1414 c 258
 -586 1414 l 258
 -575 1414 -562 1404 -549 1387 c 258
 -344 1121 l 258
 -336 1110 -346 1102 -355 1102 c 258
EndSplineSet
EndChar

StartChar: uni0311
Encoding: 785 785 176
Width: 0
Flags: HMW
AnchorPoint: "top" -604 1000 mark 0
LayerCount: 2
Fore
SplineSet
-604 1405 m 0
 -774 1405 -849 1291 -849 1183 c 0
 -849 1175 -854 1170 -861 1170 c 2
 -862 1170 l 2
 -869 1170 -875 1175 -874 1186 c 0
 -866 1328 -787 1435 -604 1435 c 0
 -421 1435 -340 1327 -334 1183 c 0
 -334 1175 -339 1170 -346 1170 c 6
 -347 1170 l 6
 -354 1170 -359 1175 -359 1185 c 0
 -360 1295 -436 1405 -604 1405 c 0
EndSplineSet
EndChar

StartChar: dotbelowcomb
Encoding: 803 803 177
Width: 0
Flags: HMW
AnchorPoint: "bottom" -551 0 mark 0
LayerCount: 2
Fore
SplineSet
-545 -291 m 2
 -555 -291 l 2
 -572 -291 -587 -278 -587 -261 c 2
 -587 -249 l 2
 -587 -232 -572 -219 -555 -219 c 2
 -545 -219 l 2
 -528 -219 -513 -232 -513 -249 c 2
 -513 -261 l 2
 -513 -278 -528 -291 -545 -291 c 2
EndSplineSet
EndChar

StartChar: uni0326
Encoding: 806 806 178
Width: 0
Flags: HMW
AnchorPoint: "bottom" -561 0 mark 0
LayerCount: 2
Fore
SplineSet
-598 -373 m 2
 -599 -373 l 2
 -603 -373 -605.996750081 -366.532336692 -602 -359 c 2
 -576 -310 l 257
 -586 -310 l 2
 -599 -310 -605 -295 -605 -282 c 2
 -605 -275 l 2
 -605 -253 -594 -242 -572 -242 c 2
 -565 -242 l 2
 -543 -242 -532 -253 -532 -275 c 2
 -532 -279 l 2
 -532 -301 -539.707341208 -310.522675667 -548 -320 c 2
 -590 -368 l 2
 -593.283185841 -371.752212389 -596 -373 -598 -373 c 2
EndSplineSet
EndChar

StartChar: uni0327
Encoding: 807 807 179
Width: 1200
Flags: HMW
AnchorPoint: "bottom" -531 0 mark 0
LayerCount: 2
Fore
SplineSet
-633 -500 m 0
 -712 -500 -768 -486 -821 -451 c 0
 -831 -444 -831 -435 -828 -429 c 2
 -827 -427 l 2
 -823.599609375 -420.200195312 -813 -418 -804 -423 c 0
 -752 -451 -732 -470 -633 -470 c 0
 -499 -470 -459 -404 -459 -342 c 0
 -459 -246 -555 -221 -684 -220 c 0
 -697 -220 -704.799804688 -221.400390625 -707 -217 c 2
 -708 -215 l 2
 -711.200195312 -208.599609375 -704 -203 -699 -196 c 2
 -547 10 l 1
 -517 10 l 1
 -691 -211 l 1
 -685 -210 -639 -210 -624 -210 c 0
 -538 -210 -429 -242 -429 -342 c 0
 -429 -430 -489 -500 -633 -500 c 0
EndSplineSet
EndChar

StartChar: uni0328
Encoding: 808 808 180
Width: 1200
Flags: HMW
AnchorPoint: "ogonek" -551 0 mark 0
LayerCount: 2
Fore
SplineSet
-472 -425 m 2
 -472 -427 l 2
 -472 -434 -476 -440 -488 -440 c 6
 -565 -440 l 2
 -733 -440 -811 -358 -811 -240 c 0
 -811 -122 -705 -52 -545 20 c 1
 -535 0 l 1
 -689 -74 -781 -116 -781 -240 c 0
 -781 -352 -715 -410 -555 -410 c 2
 -488 -410 l 6
 -476 -410 -472 -418 -472 -425 c 2
EndSplineSet
EndChar

StartChar: uni0312
Encoding: 786 786 181
Width: 0
Flags: HMW
AnchorPoint: "top" -604 950 mark 0
LayerCount: 2
Fore
SplineSet
-572 1431 m 262
 -571 1431 l 262
 -563 1431 -561 1423 -563 1413 c 270
 -599 1220 l 261
 -597 1220 l 262
 -584 1220 -580 1215 -580 1201 c 262
 -580 1027 l 262
 -580 1015 -587 1007 -600 1007 c 262
 -604 1007 l 262
 -617 1007 -625 1015 -625 1027 c 262
 -625 1182 l 262
 -625 1193 -620 1212 -618 1223 c 262
 -586 1411 l 262
 -583 1426 -579 1431 -572 1431 c 262
EndSplineSet
EndChar

StartChar: sterling
Encoding: 163 163 182
Width: 1280
VWidth: 1920
Flags: HMW
LayerCount: 2
Fore
SplineSet
44 697 m 258
 44 698 l 258
 44 708 52 710 65 710 c 258
 715 710 l 258
 728 710 735 708 735 698 c 258
 735 697 l 258
 735 687 728 685 715 685 c 258
 65 685 l 258
 52 685 44 687 44 697 c 258
88 38 m 256
 204 152 328 309 328 514 c 256
 328 732 140 815 140 1043 c 256
 140 1273 268 1435 555 1435 c 256
 849 1435 935 1266 950 977 c 256
 950.727515643 962.983198618 947 957 936 957 c 258
 935 957 l 258
 924 957 920.803592584 962.98735432 920 977 c 256
 904 1256 820 1405 555 1405 c 256
 288 1405 170 1253 170 1043 c 256
 170 822 358 740 358 514 c 256
 358 332 236 121 117 35 c 257
 1024 35 l 258
 1037 35 1044 29 1044 18 c 262
 1044 17 l 262
 1044 6 1037 0 1024 0 c 258
 96 0 l 258
 83 0 75 4 75 15 c 258
 75 17 l 258
 75 25 79 30 88 38 c 256
EndSplineSet
EndChar

StartChar: currency
Encoding: 164 164 183
Width: 1112
VWidth: 0
Flags: HMW
LayerCount: 2
Fore
SplineSet
1006 1164 m 258
 1007 1163 l 258
 1015 1155 1012 1147 1003 1138 c 258
 904 1039 l 258
 899 1034 895 1034 890 1039 c 258
 882 1047 l 258
 877 1052 877 1057 882 1062 c 258
 980 1160 l 258
 989 1169 998 1172 1006 1164 c 258
220 386 m 258
 228 378 l 258
 233 373 233 368 228 363 c 258
 120 255 l 258
 111 246 102 242 94 250 c 258
 93 251 l 258
 85 259 88 268 97 277 c 258
 206 386 l 258
 211 391 215 391 220 386 c 258
93 1164 m 258
 94 1165 l 258
 102 1173 111 1169 120 1160 c 258
 228 1052 l 258
 233 1047 233 1042 228 1037 c 258
 220 1029 l 258
 215 1024 211 1024 206 1029 c 258
 97 1138 l 258
 88 1147 85 1156 93 1164 c 258
882 368 m 258
 890 376 l 258
 895 381 899 381 904 376 c 258
 1003 277 l 258
 1012 268 1015 259 1007 251 c 258
 1006 250 l 258
 998 242 989 246 980 255 c 258
 882 353 l 258
 877 358 877 363 882 368 c 258
63 710 m 256
 63 979 284 1200 553 1200 c 256
 822 1200 1043 979 1043 710 c 256
 1043 441 822 220 553 220 c 256
 284 220 63 441 63 710 c 256
93 710 m 256
 93 451 304 250 553 250 c 256
 802 250 1013 451 1013 710 c 256
 1013 959 802 1170 553 1170 c 256
 304 1170 93 959 93 710 c 256
EndSplineSet
EndChar

StartChar: brokenbar
Encoding: 166 166 184
Width: 415
VWidth: 1920
Flags: HMW
LayerCount: 2
Fore
SplineSet
204 433 m 258
 212 433 l 258
 223 433 228 427 228 414 c 258
 228 -344 l 258
 228 -357 223 -363 212 -363 c 258
 204 -363 l 258
 193 -363 188 -357 188 -344 c 258
 188 414 l 258
 188 427 193 433 204 433 c 258
204 1603 m 258
 212 1603 l 258
 223 1603 228 1597 228 1584 c 258
 228 826 l 258
 228 813 223 807 212 807 c 258
 204 807 l 258
 193 807 188 813 188 826 c 258
 188 1584 l 258
 188 1597 193 1603 204 1603 c 258
EndSplineSet
EndChar

StartChar: section
Encoding: 167 167 185
Width: 1086
VWidth: 1920
Flags: HMW
LayerCount: 2
Fore
SplineSet
483 870 m 257
 248 860 105 791 105 633 c 256
 105 476 308 349 490 246 c 256
 730 110 875 67 875 -93 c 256
 875 -275 740 -400 513 -400 c 256
 279 -400 196 -267 181 -63 c 256
 180.116972493 -50.9908259059 189 -44 200 -44 c 258
 201 -44 l 258
 212 -44 219.927541142 -50.701510161 221 -64 c 256
 236 -250 312 -370 513 -370 c 256
 721 -370 845 -253 845 -93 c 256
 845 55 635 131 470 222 c 256
 187 378 75 496 75 633 c 256
 75 815 230 880 484 880 c 257
 483 870 l 257
613 165 m 257
 848 195 981 254 981 432 c 256
 981 589 778 691 596 794 c 256
 356 930 211 998 211 1158 c 256
 211 1340 316 1435 543 1435 c 256
 777 1435 870 1302 885 1098 c 256
 885.883027507 1085.99082591 883 1077 872 1077 c 258
 871 1077 l 258
 860 1077 856.13296633 1085.7065284 855 1099 c 256
 840 1275 754 1405 543 1405 c 256
 335 1405 241 1318 241 1158 c 256
 241 1010 450 909 615 818 c 256
 898 662 1011 589 1011 432 c 256
 1011 230 846 155 612 155 c 257
 613 165 l 257
EndSplineSet
EndChar

StartChar: copyright
Encoding: 169 169 186
Width: 1484
VWidth: 0
Flags: HMW
LayerCount: 2
Fore
SplineSet
1055 545 m 260
 1048 399 930 229 741 229 c 256
 509 229 414 393 414 621 c 258
 414 720 l 258
 414 948 509 1111 741 1111 c 256
 811 1111 1032 1093 1037 839 c 256
 1037.15867512 830.939303863 1035 826 1029 826 c 258
 1028 826 l 258
 1021 826 1019.15402776 830.93921372 1019 839 c 256
 1016 996 917 1093 747 1093 c 256
 521 1093 432 936 432 720 c 258
 432 621 l 258
 432 405 521 247 747 247 c 256
 888 247 1025 377 1037 545 c 260
 1037.57441208 553.041769131 1039 558 1046 558 c 262
 1047 558 l 262
 1054 558 1055.38610308 553.053007166 1055 545 c 260
1439 668 m 256
 1439 284 1125 -28 741 -28 c 256
 357 -28 45 284 45 668 c 256
 45 1052 357 1366 741 1366 c 256
 1125 1366 1439 1052 1439 668 c 256
1409 668 m 256
 1409 1036 1109 1336 741 1336 c 256
 373 1336 75 1036 75 668 c 256
 75 300 373 2 741 2 c 256
 1109 2 1409 300 1409 668 c 256
EndSplineSet
EndChar

StartChar: registered
Encoding: 174 174 188
Width: 1484
VWidth: 0
Flags: HMW
LayerCount: 2
Fore
SplineSet
502 1072 m 257
 502 685 l 257
 790 685 l 258
 902 685 1003 741 1003 855 c 258
 1003 875 l 258
 1003 1001 932 1072 790 1072 c 258
 502 1072 l 257
790 1090 m 258
 938 1090 1021 1013 1021 875 c 258
 1021 861 l 258
 1021 735 932 676 790 676 c 257
 790 682 l 257
 944 682 1015 647 1015 503 c 258
 1015 447 l 258
 1015 379 1033 306 1060 266 c 256
 1065.27805636 258.180657247 1067 255 1067 253 c 262
 1067 252 l 262
 1067 248 1065 245 1059 245 c 258
 1058 245 l 258
 1052 245 1047.98698196 249.992577161 1044 257 c 256
 1011 315 996 371 996 447 c 258
 996 503 l 258
 996 647 920 673 790 673 c 258
 502 673 l 257
 502 260 l 258
 502 252 500 248 493 248 c 258
 492 248 l 258
 485 248 484 252 484 260 c 258
 484 1076 l 258
 484 1085 489 1090 498 1090 c 258
 790 1090 l 258
1439 668 m 256
 1439 284 1125 -28 741 -28 c 256
 357 -28 45 284 45 668 c 256
 45 1052 357 1366 741 1366 c 256
 1125 1366 1439 1052 1439 668 c 256
1409 668 m 256
 1409 1036 1109 1336 741 1336 c 256
 373 1336 75 1036 75 668 c 256
 75 300 373 2 741 2 c 256
 1109 2 1409 300 1409 668 c 256
EndSplineSet
EndChar

StartChar: dotlessi
Encoding: 305 305 279
Width: 266
VWidth: 1920
Flags: HMW
AnchorPoint: "top" 133 1050 basechar 0
LayerCount: 2
Fore
SplineSet
148 1034 m 258
 148 16 l 258
 148 3 145 -3 134 -3 c 258
 132 -3 l 258
 121 -3 118 3 118 16 c 258
 118 1034 l 258
 118 1047 121 1053 132 1053 c 258
 134 1053 l 258
 145 1053 148 1047 148 1034 c 258
EndSplineSet
EndChar

StartChar: uni0237
Encoding: 567 567 291
Width: 266
VWidth: 1920
Flags: HMW
AnchorPoint: "top" 132 1050 basechar 0
LayerCount: 2
Fore
SplineSet
148 -86 m 258
 148 -293 106 -377 -175 -351 c 256
 -189 -350 -195 -347 -195 -336 c 258
 -195 -334 l 258
 -195 -323 -189 -320 -176 -321 c 256
 69 -347 118 -285 118 -88 c 258
 118 1034 l 258
 118 1047 121 1053 132 1053 c 258
 134 1053 l 258
 145 1053 148 1047 148 1034 c 258
 148 -86 l 258
EndSplineSet
EndChar

StartChar: kgreenlandic
Encoding: 312 312 298
Width: 1000
VWidth: 1920
Flags: HMW
LayerCount: 2
Fore
SplineSet
210 1050 m 6
 220 1050 l 6
 227 1050 230 1047 230 1040 c 6
 230 10 l 2
 230 3 227 0 220 0 c 2
 210 0 l 2
 203 0 200 3 200 10 c 2
 200 1040 l 6
 200 1047 203 1050 210 1050 c 6
200 473 m 257
 831 1040 l 2
 839 1048 842 1050 850 1050 c 2
 870 1050 l 2
 877 1050 878 1048 869 1040 c 2
 220 463 l 257
 200 473 l 257
480 703 m 257
 500 723 l 257
 934 10 l 2
 939 3 937 0 930 0 c 2
 915 0 l 2
 907 0 903 3 899 10 c 2
 480 703 l 257
EndSplineSet
EndChar

StartChar: grave
Encoding: 96 96 339
Width: 623
VWidth: 0
Flags: HMW
LayerCount: 2
Fore
SplineSet
405 1102 m 258
 400 1102 l 258
 391 1102 381 1108 372 1118 c 258
 149 1380 l 258
 138.729110524 1392.06714369 149 1414 171 1414 c 258
 174 1414 l 258
 185 1414 198 1404 211 1387 c 258
 416 1121 l 258
 424 1110 414 1102 405 1102 c 258
EndSplineSet
EndChar

StartChar: longs
Encoding: 383 383 352
Width: 620
VWidth: 1920
Flags: HMW
LayerCount: 2
Fore
SplineSet
250 1188 m 262
 250 1395 291 1467 572 1441 c 260
 587 1440 593 1437 593 1428 c 262
 593 1427 l 262
 593 1418 587 1415 568 1417 c 260
 311 1444 285 1383 285 1188 c 262
 285 16 l 262
 285 4 279 -3 268 -3 c 262
 267 -3 l 262
 256 -3 250 4 250 16 c 262
 250 1188 l 262
EndSplineSet
EndChar

StartChar: uni0259
Encoding: 601 601 359
Width: 1110
VWidth: 1920
Flags: HMW
LayerCount: 2
Fore
SplineSet
186 721 m 0
 216 885 295 1085 588 1085 c 256
 817 1085 964 912 964 602 c 258
 964 447 l 258
 964 147 807 -35 580 -35 c 256
 323 -35 218 161 194 376 c 256
 186 447 186 432 186 516 c 0
 186 521 189 524 196 524 c 2
 950 524 l 257
 950 495 l 257
 215 495 l 257
 220 158 357 -10 580 -10 c 256
 797 -10 934 177 934 447 c 258
 934 602 l 258
 934 872 806 1060 589 1060 c 256
 337 1060 245 896 213 718 c 0
 212 714 208 707 199 707 c 6
 197 707 l 6
 188 707 185 715 186 721 c 0
EndSplineSet
EndChar

StartChar: logicalnot
Encoding: 172 172 373
Width: 1150
VWidth: 2048
Flags: HMW
LayerCount: 2
Fore
SplineSet
127 681 m 258
 127 684 l 258
 127 695 133 700 146 700 c 258
 957 700 l 258
 973 700 980 693 980 677 c 258
 980 331 l 258
 980 318 976 312 966 312 c 258
 965 312 l 258
 955 312 950 318 950 331 c 258
 950 665 l 257
 146 665 l 258
 133 665 127 670 127 681 c 258
EndSplineSet
EndChar

StartChar: acute
Encoding: 180 180 374
Width: 619
VWidth: 0
Flags: HMW
LayerCount: 2
Fore
SplineSet
156 1102 m 262
 147 1102 137 1110 145 1121 c 262
 350 1387 l 262
 363 1404 376 1414 387 1414 c 262
 390 1414 l 262
 412 1414 422.270507812 1392.06738281 412 1380 c 262
 189 1118 l 262
 180 1108 170 1102 161 1102 c 262
 156 1102 l 262
EndSplineSet
EndChar

StartChar: degree
Encoding: 176 176 376
Width: 880
VWidth: 2048
Flags: HMW
LayerCount: 2
Fore
SplineSet
100 1083 m 258
 100 1118 l 258
 100 1308 258 1435 435 1435 c 256
 612 1435 780 1308 780 1118 c 258
 780 1083 l 258
 780 893 612 765 435 765 c 256
 258 765 100 893 100 1083 c 258
135 1073 m 262
 135 913 278 795 435 795 c 260
 592 795 745 913 745 1073 c 262
 745 1128 l 262
 745 1288 592 1405 435 1405 c 260
 278 1405 135 1288 135 1128 c 262
 135 1073 l 262
EndSplineSet
EndChar

StartChar: plusminus
Encoding: 177 177 377
Width: 1168
VWidth: 0
Flags: HMW
LayerCount: 2
Fore
SplineSet
102 262 m 258
 102 263 l 258
 102 272 108 275 120 275 c 258
 1040 275 l 258
 1052 275 1058 270 1058 263 c 258
 1058 262 l 258
 1058 255 1052 250 1040 250 c 258
 120 250 l 258
 108 250 102 253 102 262 c 258
100 1040 m 258
 100 1045 l 258
 100 1055 108 1060 120 1060 c 258
 1040 1060 l 258
 1052 1060 1060 1055 1060 1045 c 258
 1060 1040 l 258
 1060 1030 1052 1025 1040 1025 c 258
 120 1025 l 258
 108 1025 100 1030 100 1040 c 258
579 1498 m 258
 581 1498 l 258
 591 1498 595 1491 595 1479 c 258
 595 581 l 258
 595 569 591 561 581 561 c 258
 579 561 l 258
 569 561 565 569 565 581 c 258
 565 1479 l 258
 565 1491 569 1498 579 1498 c 258
EndSplineSet
EndChar

StartChar: ae
Encoding: 230 230 379
Width: 1738
VWidth: 1920
Flags: HMW
LayerCount: 2
Fore
SplineSet
170 263 m 0
 170 59 282 -5 430 -5 c 256
 684 -5 838 232 838 398 c 257
 853 378 l 257
 853 175 677 -35 426 -35 c 256
 247 -35 140 55 140 260 c 0
 140 431 249 555 539 595 c 256
 723 620 838 675 838 758 c 257
 858 738 l 257
 858 655 716 595 546 570 c 256
 267 528 170 413 170 263 c 0
838 368 m 265
 838 778 l 258
 838 938 772 1060 557 1060 c 256
 328 1060 226 948 207 742 c 0
 206 736 204 733 197 733 c 2
 188 733 l 2
 181 733 178 736 179 742 c 0
 203 965 312 1085 558 1085 c 256
 787 1085 868 951 868 773 c 258
 868 368 l 257
 838 368 l 265
1617 329 m 4
 1587 165 1508 -35 1215 -35 c 260
 986 -35 839 138 839 448 c 262
 839 603 l 262
 839 903 996 1085 1223 1085 c 260
 1480 1085 1585 889 1609 674 c 260
 1617 603 1617 618 1617 534 c 4
 1617 529 1614 526 1607 526 c 6
 853 526 l 261
 853 555 l 261
 1588 555 l 261
 1583 892 1446 1060 1223 1060 c 260
 1006 1060 869 873 869 603 c 262
 869 448 l 262
 869 178 997 -10 1214 -10 c 260
 1466 -10 1558 154 1590 332 c 4
 1591 336 1594 338 1601 338 c 6
 1609 338 l 6
 1616 338 1618 335 1617 329 c 4
EndSplineSet
EndChar

StartChar: paragraph
Encoding: 182 182 380
Width: 1070
VWidth: 1920
Flags: HMW
LayerCount: 2
Fore
SplineSet
885 1365 m 257
 885 -344 l 258
 885 -357 882 -364 871 -364 c 258
 869 -364 l 258
 858 -364 854 -357 855 -344 c 258
 855 1365 l 257
 605 1365 l 257
 605 -344 l 258
 604 -357 602 -364 591 -364 c 258
 589 -364 l 258
 578 -364 575 -357 575 -344 c 258
 575 600 l 257
 495 600 l 258
 288 600 100 698 100 968 c 258
 100 1032 l 258
 100 1302 288 1400 495 1400 c 258
 1019 1400 l 258
 1032 1400 1039 1394 1039 1383 c 258
 1039 1382 l 258
 1039 1371 1032 1365 1019 1365 c 258
 885 1365 l 257
EndSplineSet
EndChar

StartChar: guilsinglleft
Encoding: 8249 8249 381
Width: 630
Flags: HMW
LayerCount: 2
Fore
SplineSet
460 216 m 6
 170 539 l 6
 164.887305033 544.694484395 158 553 158 560 c 6
 158 561 l 6
 158 568 164.536125544 575.479602704 170 581 c 6
 460 874 l 6
 465.963847978 880.025542957 474 877 474 869 c 6
 474 868 l 6
 474 859 465.871583998 850.06167125 460 844 c 6
 182 557 l 261
 460 251 l 6
 465.608144161 244.827006787 476 233 476 223 c 6
 476 222 l 6
 476 215 465.163483328 210.24894788 460 216 c 6
EndSplineSet
EndChar

StartChar: guilsinglright
Encoding: 8250 8250 382
Width: 630
Flags: HW
LayerCount: 2
Fore
SplineSet
170 874 m 6
 460 551 l 6
 465.112304688 545.305664062 472 537 472 530 c 6
 472 529 l 6
 472 522 465.463867188 514.520507812 460 509 c 6
 170 216 l 6
 164.036132812 209.974609375 156 213 156 221 c 6
 156 222 l 6
 156 231 164.127929688 239.938476562 170 246 c 6
 448 533 l 261
 170 839 l 6
 164.391601562 845.172851562 154 857 154 867 c 6
 154 868 l 6
 154 875 164.836914062 879.750976562 170 874 c 6
EndSplineSet
EndChar

StartChar: mu
Encoding: 181 181 385
Width: 1110
VWidth: 1920
Flags: HW
LayerCount: 2
Fore
SplineSet
216 1052 m 2
 220 1052 l 2
 227 1052 233 1047 233 1040 c 2
 233 -350 l 2
 233 -359 226 -365 219 -365 c 2
 217 -365 l 2
 210 -365 203 -359 203 -350 c 2
 203 1040 l 2
 203 1047 209 1052 216 1052 c 2
927 -3 m 258
 926 -3 l 258
 916 -3 913 3 913 16 c 258
 913 383 l 257
 909 410 l 257
 909 1034 l 258
 909 1047 912 1053 923 1053 c 258
 925 1053 l 258
 936 1053 939 1047 939 1034 c 258
 939 16 l 258
 939 3 936 -3 927 -3 c 258
929 427 m 257
 929 197 764 -35 530 -35 c 256
 314 -35 216 87 216 317 c 258
 216 1034 l 258
 216 1037 222 1043 223 1043 c 258
 225 1043 l 258
 231 1043 233 1038 233 1034 c 258
 233 317 l 258
 233 107 332 -10 530 -10 c 256
 759 -10 909 217 909 427 c 257
 929 427 l 257
EndSplineSet
EndChar

StartChar: Eth
Encoding: 208 208 387
Width: 1273
VWidth: 1920
Flags: HW
LayerCount: 2
Fore
SplineSet
-4 711 m 10
 -4 714 l 18
 -4 725 4 730 16 730 c 10
 607 730 l 18
 618 730 626 724 626 714 c 10
 626 711 l 18
 626 701 618 695 607 695 c 10
 16 695 l 18
 4 695 -4 700 -4 711 c 10
EndSplineSet
Refer: 15 68 N 1 0 0 1 0 0 2
EndChar

StartChar: Dcroat
Encoding: 272 272 388
Width: 1273
VWidth: 1920
Flags: HW
LayerCount: 2
Fore
SplineSet
-4 705 m 14
 -4 720 l 22
 -4 727 -1 730 6 730 c 14
 616 730 l 22
 623 730 626 727 626 720 c 14
 626 705 l 22
 626 698 623 695 616 695 c 14
 6 695 l 22
 -1 695 -4 698 -4 705 c 14
EndSplineSet
Refer: 15 68 N 1 0 0 1 0 0 2
EndChar

StartChar: thorn
Encoding: 254 254 389
Width: 1135
VWidth: 1920
Flags: HW
LayerCount: 2
Fore
SplineSet
134 1453 m 258
 136 1453 l 258
 147 1453 150 1447 150 1434 c 258
 150 -344 l 258
 150 -357 147 -363 136 -363 c 262
 134 -363 l 262
 123 -363 120 -357 120 -344 c 258
 120 1434 l 258
 120 1447 123 1453 134 1453 c 258
135 633 m 257
 135 903 361 1085 578 1085 c 256
 784 1085 1018 943 1018 603 c 258
 1018 447 l 258
 1018 127 793 -35 587 -35 c 256
 343 -35 135 157 135 417 c 257
 150 437 l 257
 150 197 344 -5 587 -5 c 256
 775 -5 988 147 988 447 c 258
 988 603 l 258
 988 923 766 1055 578 1055 c 256
 353 1055 150 853 150 613 c 257
 135 633 l 257
EndSplineSet
EndChar

StartChar: Thorn
Encoding: 222 222 390
Width: 1280
VWidth: 1920
Flags: HW
LayerCount: 2
Fore
SplineSet
700 1100 m 258
 987 1100 1095 1052 1095 782 c 258
 1095 718 l 258
 1095 448 987 400 700 400 c 258
 280 400 l 257
 280 16 l 258
 280 3 275 -3 266 -3 c 262
 264 -3 l 262
 255 -3 250 3 250 16 c 258
 250 1384 l 258
 250 1397 255 1403 264 1403 c 258
 266 1403 l 258
 275 1403 280 1397 280 1384 c 258
 280 1100 l 257
 700 1100 l 258
280 430 m 257
 700 430 l 258
 987 430 1065 488 1065 718 c 258
 1065 782 l 258
 1065 1022 987 1070 700 1070 c 258
 280 1070 l 257
 280 430 l 257
EndSplineSet
EndChar

StartChar: divide
Encoding: 247 247 391
Width: 1169
VWidth: 2048
Flags: HW
LayerCount: 2
Fore
SplineSet
67 690 m 258
 67 695 l 258
 67 705 73 710 85 710 c 258
 1055 710 l 258
 1067 710 1073 705 1073 695 c 258
 1073 690 l 258
 1073 680 1067 675 1055 675 c 258
 85 675 l 258
 73 675 67 680 67 690 c 258
EndSplineSet
Refer: 1 46 S 1 0 0 1 306 990 2
Refer: 1 46 N 1 0 0 1 306 180 2
EndChar

StartChar: multiply
Encoding: 215 215 392
Width: 1060
VWidth: 1920
Flags: HW
LayerCount: 2
Fore
SplineSet
866 377 m 2
 865 376 l 2
 860 371 853 374 848 379 c 6
 197 1030 l 2
 192.000005872 1034.99999413 188 1043 193 1048 c 2
 194 1049 l 2
 199 1054 207.000005872 1049.99999413 212 1045 c 2
 863 394 l 6
 868 389 871 382 866 377 c 2
194 376 m 2
 193 377 l 2
 188.759615385 381.240384615 191 389 196 394 c 2
 848 1046 l 2
 852.99999411 1050.99999411 860 1054 865 1049 c 2
 866 1048 l 2
 871 1043 867.996153873 1036.00382846 863 1031 c 2
 212 379 l 2
 207.00390625 373.99609375 199 371 194 376 c 2
EndSplineSet
EndChar

StartChar: Oslash
Encoding: 216 216 393
Width: 1365
VWidth: 1920
Flags: HW
LayerCount: 2
Fore
SplineSet
1120 1484 m 2
 1122 1483 l 2
 1129.8 1479.1 1129 1466 1125 1460 c 2
 248 -58 l 2
 243.966897851 -64.9808997289 233.538461538 -67.6923076923 228 -64 c 2
 225 -62 l 2
 218.824444111 -57.8829627404 217.968302673 -48.9818320152 222 -42 c 6
 1098 1475 l 2
 1102 1481 1112.59960938 1487.70019531 1120 1484 c 2
EndSplineSet
Refer: 26 79 N 1 0 0 1 0 0 2
EndChar

StartChar: oslash
Encoding: 248 248 394
Width: 1110
VWidth: 1920
Flags: HW
LayerCount: 2
Fore
SplineSet
904 1171 m 258
 907 1169 l 258
 913.498046875 1164.66796875 915 1157 910 1149 c 258
 200 -81 l 258
 195.286613783 -89.1654437283 185 -91 178 -87 c 262
 175 -85 l 262
 168.538085938 -80.6923828125 168 -73 173 -65 c 258
 883 1165 l 258
 887.713386217 1173.16544373 897 1175 904 1171 c 258
EndSplineSet
Refer: 52 111 N 1 0 0 1 0 0 2
EndChar

StartChar: germandbls
Encoding: 223 223 396
Width: 1210
VWidth: 1920
Flags: HW
LayerCount: 2
Fore
SplineSet
220 1188 m 258
 220 1362 287 1487 517 1487 c 256
 750 1487 872 1372 872 1205 c 256
 872 1008 652 948 652 828 c 256
 652 559 1092 593 1092 302 c 256
 1092 90 973 -33 619 -35 c 256
 604.000239389 -35.0847444102 595 -33 595 -20 c 262
 595 -19 l 262
 595 -6 603.967328575 -4.13707603123 619 -4 c 256
 948 -1 1062 114 1062 302 c 256
 1062 575 622 537 622 828 c 256
 622 970 842 1025 842 1205 c 256
 842 1346 739 1457 517 1457 c 256
 315 1457 255 1341 255 1188 c 258
 255 16 l 258
 255 3 249 -3 238 -3 c 258
 237 -3 l 258
 226 -3 220 3 220 16 c 258
 220 1188 l 258
EndSplineSet
EndChar

StartChar: eth
Encoding: 240 240 397
Width: 1104
VWidth: 1920
Flags: HW
LayerCount: 2
Fore
SplineSet
177 1174 m 258
 176 1180 l 258
 172 1189 177 1196 188 1201 c 258
 714 1445 l 258
 724 1450 732.172462475 1449.65507505 736 1442 c 258
 737 1440 l 258
 740.448242188 1431.37890625 735.127737226 1419.72627737 725 1415 c 258
 200 1170 l 258
 189 1165 181 1165 177 1174 c 258
469 1055 m 256
 249 1055 160 830 160 567 c 258
 160 457 l 258
 160 177 291 -5 550 -5 c 256
 867 -5 909 252 909 472 c 258
 909 698 l 258
 909 984 592.39763205 1296.01353598 245 1448 c 256
 229 1455 224.2 1461.4 229 1471 c 258
 230 1473 l 258
 235.2 1483.4 239 1485 258 1477 c 256
 629 1333 954 999 954 623 c 258
 954 537 l 258
 954 237 907 -35 550 -35 c 256
 258 -35 120 179 120 457 c 258
 120 567 l 258
 120 841 212 1085 469 1085 c 256
 706 1085 929 856 929 662 c 257
 909 472 l 257
 909 602 l 258
 909 855 709 1055 469 1055 c 256
EndSplineSet
EndChar

StartChar: dcroat
Encoding: 273 273 398
Width: 1093
VWidth: 1920
Flags: HW
LayerCount: 2
Fore
SplineSet
697 1255 m 14
 697 1270 l 22
 697 1277 700 1280 707 1280 c 14
 1177 1280 l 22
 1184 1280 1187 1277 1187 1270 c 14
 1187 1255 l 22
 1187 1248 1184 1245 1177 1245 c 14
 707 1245 l 22
 700 1245 697 1248 697 1255 c 14
EndSplineSet
Refer: 41 100 N 1 0 0 1 0 0 2
EndChar

StartChar: Hbar
Encoding: 294 294 399
Width: 1271
VWidth: 1920
Flags: HW
LayerCount: 2
Fore
SplineSet
-43 1060 m 10
 -43 1075 l 22
 -43 1082 -40 1085 -33 1085 c 14
 1327 1085 l 22
 1334 1085 1337 1082 1337 1075 c 14
 1337 1060 l 18
 1337 1053 1334 1050 1327 1050 c 10
 -33 1050 l 18
 -40 1050 -43 1053 -43 1060 c 10
EndSplineSet
Refer: 19 72 N 1 0 0 1 0 0 2
EndChar

StartChar: hbar
Encoding: 295 295 400
Width: 986
VWidth: 1920
Flags: HW
LayerCount: 2
Fore
SplineSet
-11 1305 m 14
 -11 1320 l 18
 -11 1327 -8 1330 -1 1330 c 10
 469 1330 l 18
 476 1330 479 1327 479 1320 c 10
 479 1305 l 22
 479 1298 476 1295 469 1295 c 14
 -1 1295 l 22
 -8 1295 -11 1298 -11 1305 c 14
EndSplineSet
Refer: 45 104 N 1 0 0 1 0 0 2
EndChar

StartChar: Lslash
Encoding: 321 321 405
Width: 1050
VWidth: 1920
Flags: HW
LayerCount: 2
Fore
SplineSet
468 1038 m 6
 471 1034 l 6
 475 1028 473 1024 467 1020 c 6
 9 755 l 6
 3 751 -1 753 -5 759 c 6
 -8 763 l 6
 -12 769 -10 773 -4 777 c 6
 454 1042 l 6
 460 1046 464 1044 468 1038 c 6
EndSplineSet
Refer: 23 76 N 1 0 0 1 0 0 2
EndChar

StartChar: lslash
Encoding: 322 322 406
Width: 286
VWidth: 1920
Flags: HW
LayerCount: 2
Fore
SplineSet
404 1038 m 6
 407 1034 l 6
 411 1028 409 1024 403 1020 c 6
 -55 755 l 6
 -61 751 -65 753 -69 759 c 6
 -72 763 l 6
 -76 769 -74 773 -68 777 c 6
 390 1042 l 6
 396 1046 400 1044 404 1038 c 6
EndSplineSet
Refer: 49 108 N 1 0 0 1 0 0 2
EndChar

StartChar: eng
Encoding: 331 331 408
Width: 1110
VWidth: 1920
Flags: HW
LayerCount: 2
Fore
SplineSet
214 1050 m 2
 221 1050 l 2
 228 1050 230 1047 230 1040 c 2
 230 667 l 257
 235 640 l 257
 235 10 l 2
 235 3 232 0 225 0 c 2
 215 0 l 2
 208 0 205 3 205 10 c 2
 205 1040 l 2
 205 1047 207 1050 214 1050 c 2
905 -86 m 2
 905 -293 864 -378 576 -351 c 0
 568 -350 565 -347 565 -340 c 2
 565 -330 l 2
 565 -323 568 -320 575 -321 c 0
 827 -348 875 -285 875 -88 c 2
 875 763 l 2
 875 943 787 1060 600 1060 c 0
 403 1060 235 833 235 623 c 1
 215 623 l 1
 215 843 373 1085 600 1085 c 0
 807 1085 905 963 905 763 c 2
 905 -86 l 2
EndSplineSet
EndChar

StartChar: Eng
Encoding: 330 330 409
Width: 1380
VWidth: 1920
Flags: HW
LayerCount: 2
Fore
SplineSet
1130 1400 m 2
 1140 1400 l 2
 1147 1400 1150 1397 1150 1390 c 2
 1150 -86 l 2
 1150 -293 1109 -378 821 -351 c 0
 813 -350 810 -347 810 -340 c 2
 810 -330 l 2
 810 -323 813 -320 820 -321 c 0
 1072 -348 1120 -285 1120 -88 c 2
 1120 -10 l 1
 260 1363 l 1
 260 10 l 2
 260 3 257 0 250 0 c 2
 240 0 l 2
 233 0 230 3 230 10 c 2
 230 1390 l 2
 230 1397 233 1400 240 1400 c 2
 260 1400 l 2
 268 1400 271 1398 277 1390 c 2
 1120 47 l 25
 1120 1390 l 2
 1120 1397 1123 1400 1130 1400 c 2
EndSplineSet
EndChar

StartChar: oe
Encoding: 339 339 410
Width: 1880
VWidth: 1920
Flags: HW
LayerCount: 2
Fore
SplineSet
130 468 m 258
 130 583 l 258
 130 873 258 1085 555 1085 c 256
 852 1085 980 873 980 583 c 258
 980 468 l 258
 980 178 852 -35 555 -35 c 256
 258 -35 130 178 130 468 c 258
155 468 m 258
 155 198 278 -10 555 -10 c 256
 832 -10 955 198 955 468 c 258
 955 583 l 258
 955 853 832 1060 555 1060 c 256
 278 1060 155 853 155 583 c 258
 155 468 l 258
1734 329 m 0
 1704 165 1625 -35 1332 -35 c 256
 1103 -35 956 138 956 448 c 258
 956 603 l 258
 956 903 1113 1085 1340 1085 c 256
 1597 1085 1702 889 1726 674 c 256
 1734 603 1734 594.010415537 1734 546 c 0
 1734 532 1724 526 1712 526 c 2
 970 526 l 257
 970 555 l 257
 1705 555 l 257
 1700 892 1563 1060 1340 1060 c 256
 1123 1060 986 873 986 603 c 258
 986 448 l 258
 986 178 1114 -10 1331 -10 c 256
 1583 -10 1675 154 1707 332 c 0
 1707.7295372 336.058050698 1709 346 1720 346 c 2
 1721 346 l 2
 1734 346 1735.09453831 334.983476071 1734 329 c 0
EndSplineSet
EndChar

StartChar: OE
Encoding: 338 338 411
Width: 2130
VWidth: 1920
Flags: HW
LayerCount: 2
Fore
SplineSet
675 1400 m 258
 1095 1400 l 258
 1102 1400 1105 1397 1105 1390 c 258
 1105 10 l 258
 1105 3 1102 0 1095 0 c 258
 675 0 l 258
 361 0 180 241 180 617 c 258
 180 782 l 258
 180 1158 321 1400 675 1400 c 258
675 1370 m 258
 351 1370 210 1150 210 782 c 258
 210 617 l 258
 210 259 381 30 675 30 c 258
 1075 30 l 257
 1075 1370 l 257
 675 1370 l 258
EndSplineSet
Refer: 16 69 N 1 0 0 1 850 0 2
EndChar

StartChar: Tbar
Encoding: 358 358 413
Width: 1108
VWidth: 1920
Flags: HW
LayerCount: 2
Fore
SplineSet
168 746 m 258
 168 748 l 258
 168 758 174 765 186 765 c 258
 926 765 l 258
 938 765 944 758 944 748 c 258
 944 746 l 258
 944 736 938 730 926 730 c 258
 186 730 l 258
 174 730 168 736 168 746 c 258
EndSplineSet
Refer: 31 84 N 1 0 0 1 0 0 2
EndChar

StartChar: tbar
Encoding: 359 359 414
Width: 625
VWidth: 1920
Flags: HW
LayerCount: 2
Fore
SplineSet
30 676 m 262
 30 678 l 258
 30 688 36 695 48 695 c 258
 558 695 l 258
 570 695 576 688 576 678 c 258
 576 676 l 258
 576 666 570 660 558 660 c 258
 48 660 l 258
 36 660 30 666 30 676 c 262
EndSplineSet
Refer: 57 116 N 1 0 0 1 0 0 2
EndChar

StartChar: uni0394
Encoding: 916 916 430
Width: 1280
VWidth: 1920
Flags: HW
LayerCount: 2
Fore
SplineSet
114 0 m 258
 98 0 92 8 97 22 c 258
 610 1384 l 258
 614 1395 618 1403 630 1403 c 258
 631 1403 l 258
 643 1403 646 1395 650 1384 c 258
 1173 22 l 258
 1178 8 1172 0 1156 0 c 258
 114 0 l 258
140 30 m 257
 1129 30 l 257
 630 1355 l 257
 140 30 l 257
EndSplineSet
EndChar

StartChar: uni03A9
Encoding: 937 937 431
Width: 1490
VWidth: 1920
Flags: HW
LayerCount: 2
Fore
SplineSet
839 54 m 256
 1069 137 1360 468 1360 748 c 258
 1360 793 l 258
 1360 1141 1109 1405 745 1405 c 256
 381 1405 130 1141 130 793 c 258
 130 748 l 258
 130 467 422 135 654 53 c 256
 675 45 682 38 682 23 c 258
 682 19 l 258
 682 8 672 0 659 0 c 258
 121 0 l 258
 108 0 101 5 101 16 c 258
 101 18 l 258
 101 29 108 35 121 35 c 258
 610 35 l 257
 378 142 100 453 100 748 c 258
 100 783 l 258
 100 1169 363 1435 745 1435 c 256
 1127 1435 1390 1169 1390 783 c 258
 1390 748 l 258
 1390 453 1109 142 878 35 c 257
 1369 35 l 258
 1382 35 1390 29 1390 18 c 258
 1390 15 l 258
 1390 4 1382 0 1369 0 c 258
 831 0 l 258
 818 0 809 9 809 20 c 258
 809 23 l 258
 809 38 815 45 839 54 c 256
EndSplineSet
EndChar

StartChar: pi
Encoding: 960 960 432
Width: 1255
VWidth: 1920
Flags: HW
LayerCount: 2
Fore
SplineSet
238 1030 m 258
 238 16 l 258
 238 3 235 -3 224 -3 c 262
 222 -3 l 262
 211 -3 208 3 208 16 c 258
 208 1030 l 258
 208 1037 211 1040 218 1040 c 258
 228 1040 l 258
 235 1040 238 1037 238 1030 c 258
1219 16 m 258
 1219 14 l 258
 1219 3 1212 -1 1199 -2 c 256
 917 -37 940 44 940 252 c 258
 940 1024 l 258
 940 1037 946 1044 957 1044 c 258
 958 1044 l 258
 969 1044 975 1037 975 1024 c 258
 975 252 l 258
 975 55 956 -7 1200 29 c 256
 1212 30 1219 27 1219 16 c 258
37 1030 m 258
 37 1035 l 258
 37 1046 43 1050 56 1050 c 258
 1144 1050 l 258
 1157 1050 1163 1046 1163 1035 c 258
 1163 1030 l 258
 1163 1019 1157 1015 1144 1015 c 258
 56 1015 l 258
 43 1015 37 1019 37 1030 c 258
EndSplineSet
EndChar

StartChar: minute
Encoding: 8242 8242 433
Width: 470
VWidth: 1920
Flags: HW
LayerCount: 2
Fore
SplineSet
59 930 m 6
 57 930 l 6
 50 930 47.864367918 938.684098721 52 950 c 6
 215 1396 l 6
 222.508931148 1416.54590977 230 1429 247 1429 c 6
 248 1429 l 6
 262 1429 271.427101284 1413.09544814 265 1398 c 6
 70 940 l 6
 67.890940986 935.046415239 66 930 59 930 c 6
EndSplineSet
EndChar

StartChar: Euro
Encoding: 8364 8364 435
Width: 1405
VWidth: 1920
Flags: HW
LayerCount: 2
Fore
SplineSet
6.4 559.5 m 258
 6.4 565.5 l 258
 6.4 575.2 12.1 580 24.5 580 c 258
 784.6 580 l 258
 797 580 802.7 575.2 802.7 565.5 c 258
 802.7 559.5 l 258
 802.7 549.8 797 545 784.6 545 c 258
 24.5 545 l 258
 12.1 545 6.4 549.8 6.4 559.5 c 258
6.4 829.5 m 258
 6.4 835.5 l 258
 6.4 845.2 12.1 850 24.5 850 c 258
 784.6 850 l 258
 797 850 802.7 845.2 802.7 835.5 c 258
 802.7 829.5 l 258
 802.7 819.8 797 815 784.6 815 c 258
 24.5 815 l 258
 12.1 815 6.4 819.8 6.4 829.5 c 258
1189.1 341.7 m 256
 1163.41202148 123.224677734 1032 -35 715 -35 c 256
 328 -35 180 238 180 618 c 258
 180 783 l 258
 180 1163 328 1435 715 1435 c 256
 1046.6 1435 1135.50270508 1288.5950293 1148.29 1140.2 c 256
 1149.52137237 1125.91007085 1142.38964844 1117.29980469 1131.79003906 1117.29980469 c 258
 1127.29980469 1117.29980469 l 258
 1115.79980469 1117.29980469 1107.71206617 1125.76371134 1107.21 1139.3 c 256
 1102.67013672 1261.7 1040.2 1405 715 1405 c 256
 348 1405 210 1133 210 793 c 258
 210 608 l 258
 210 248 358 -5 715 -5 c 256
 1022.9 -5 1137.47088867 151.398154297 1148.29 341.7 c 256
 1149.03750697 354.848210785 1156.79980469 363.700195312 1168.29980469 363.700195312 c 262
 1171.70019531 363.700195312 l 262
 1183.20019531 363.700195312 1190.67339407 355.08165931 1189.1 341.7 c 256
EndSplineSet
EndChar

StartChar: uni2116
Encoding: 8470 8470 436
Width: 2180
VWidth: 1920
Flags: HW
LayerCount: 2
Fore
SplineSet
1446 17 m 10
 1446 18 l 18
 1446 29 1453 35 1464 35 c 10
 2046 35 l 18
 2057 35 2062 27 2062 18 c 10
 2062 16 l 18
 2062 7 2057 0 2046 0 c 10
 1464 0 l 18
 1453 0 1446 6 1446 17 c 10
EndSplineSet
Refer: 132 8304 N 1 0 0 1 1370 -295 2
Refer: 25 78 N 1 0 0 1 0 0 2
EndChar

StartChar: trademark
Encoding: 8482 8482 437
Width: 1722
VWidth: 1920
Flags: HW
LayerCount: 2
Fore
SplineSet
90 1400 m 258
 724 1400 l 258
 732 1400 737 1399 737 1392 c 258
 737 1391 l 258
 737 1384 732 1382 724 1382 c 258
 416 1382 l 257
 416 572 l 258
 416 562 414 557 408 557 c 258
 406 557 l 258
 400 557 398 562 398 572 c 258
 398 1382 l 257
 90 1382 l 258
 82 1382 77 1383 77 1390 c 258
 77 1391 l 258
 77 1398 82 1400 90 1400 c 258
912 1364 m 257
 912 572 l 258
 912 562 911 557 904 557 c 258
 903 557 l 258
 895 557 894 562 894 572 c 258
 894 1385 l 258
 894 1395 898 1401 906 1401 c 258
 907 1401 l 258
 917 1401 919 1395 923 1386 c 258
 1254 583 l 257
 1555 1387 l 258
 1559 1396 1563 1401 1571 1401 c 258
 1573 1401 l 258
 1580 1401 1584 1398 1584 1385 c 258
 1584 572 l 258
 1584 562 1584 557 1576 557 c 258
 1575 557 l 258
 1567 557 1566 562 1566 572 c 258
 1566 1364 l 257
 1270 570 l 258
 1266 562 1265 560 1259 560 c 258
 1249 560 l 258
 1243 560 1241 562 1238 570 c 258
 912 1364 l 257
EndSplineSet
EndChar

StartChar: partialdiff
Encoding: 8706 8706 438
Width: 1104
VWidth: 1920
Flags: HW
LayerCount: 2
Fore
SplineSet
529 855 m 256
 299 855 150 700 150 467 c 258
 150 347 l 258
 150 137 321 -5 600 -5 c 256
 907 -5 999 302 999 472 c 258
 999 648 l 258
 999 934 688.587389161 1268.96504434 236 1450 c 0
 226 1454 221.9921875 1462.9765625 225 1472 c 2
 226 1475 l 2
 228.466210938 1482.39863281 239 1485 252 1480 c 0
 626 1337 1034 999 1034 623 c 258
 1034 537 l 258
 1034 237 917 -35 600 -35 c 256
 308 -35 120 109 120 357 c 258
 120 467 l 258
 120 711 272 885 529 885 c 256
 766 885 1009 716 1009 552 c 257
 999 372 l 257
 999 502 l 258
 999 685 789 855 529 855 c 256
EndSplineSet
EndChar

StartChar: summation
Encoding: 8721 8721 439
Width: 1170
VWidth: 1920
Flags: HW
LayerCount: 2
Fore
SplineSet
893 496 m 258
 132 -330 l 257
 1099 -330 l 258
 1114 -330 1121 -333 1121 -344 c 262
 1121 -345 l 262
 1121 -356 1114 -360 1099 -360 c 258
 92 -360 l 258
 76 -360 75 -349 84 -337 c 258
 872 520 l 257
 81 1381 l 258
 72 1393 78 1400 92 1400 c 258
 1099 1400 l 258
 1115 1400 1121 1397 1121 1386 c 258
 1121 1385 l 258
 1121 1374 1115 1370 1099 1370 c 258
 132 1370 l 257
 893 544 l 258
 906.980859317 528.824980557 906.980859317 511.175019443 893 496 c 258
EndSplineSet
EndChar

StartChar: minus
Encoding: 8722 8722 440
Width: 1170
VWidth: 0
Flags: HW
LayerCount: 2
Fore
SplineSet
127.3 530.4 m 258
 127.3 534.6 l 258
 127.3 544.3 133 550 145.4 550 c 258
 1024.6 550 l 258
 1037 550 1042.7 544.3 1042.7 534.6 c 258
 1042.7 530.4 l 258
 1042.7 520.7 1037 515 1024.6 515 c 258
 145.4 515 l 258
 133 515 127.3 520.7 127.3 530.4 c 258
EndSplineSet
EndChar

StartChar: integral
Encoding: 8747 8747 441
Width: 445
VWidth: 1920
Flags: HW
LayerCount: 2
Fore
SplineSet
238 -98 m 258
 238 -305 196 -377 -85 -351 c 256
 -99 -350 -105 -347 -105 -336 c 258
 -105 -334 l 258
 -105 -323 -99 -320 -86 -321 c 256
 186 -358 208 -265 208 -78 c 258
 208 1188 l 258
 208 1395 239 1467 520 1441 c 256
 535 1440 541 1437 541 1426 c 258
 541 1414 l 258
 541 1403 535 1402 516 1402 c 256
 247 1425 238 1353 238 1168 c 258
 238 -98 l 258
EndSplineSet
EndChar

StartChar: radical
Encoding: 8730 8730 443
Width: 1055
VWidth: 1920
Flags: HMW
LayerCount: 2
Fore
SplineSet
294 1050 m 258
 306 1050 313 1043 316 1033 c 258
 606 4 l 257
 941 1581 l 258
 943 1597 949 1603 960 1603 c 258
 971 1603 l 258
 982 1603 989 1597 986 1581 c 258
 613 -134 l 258
 610 -145 604 -145 600 -134 c 258
 279 1020 l 257
 44 1020 l 258
 31 1020 25 1023 25 1034 c 258
 25 1035 l 258
 25 1046 31 1050 44 1050 c 258
 294 1050 l 258
EndSplineSet
EndChar

StartChar: infinity
Encoding: 8734 8734 444
Width: 1450
Flags: HMW
LayerCount: 2
Fore
SplineSet
382 301 m 0
 182 301 64 471 64 665 c 0
 64 859 182 1025 382 1025 c 0
 536 1025 638 855 702 695 c 1
 766 855 866 1025 1020 1025 c 0
 1220 1025 1336 859 1336 665 c 0
 1336 471 1220 301 1020 301 c 0
 866 301 746 471 702 631 c 1
 636 471 536 301 382 301 c 0
382 331 m 4
 540 331 632 541 686 665 c 1
 636 787 540 995 382 995 c 4
 202 995 94 835 94 665 c 0
 94 507 202 331 382 331 c 4
1020 331 m 4
 1210 331 1306 507 1306 665 c 0
 1306 825 1210 995 1020 995 c 4
 862 995 766 787 716 665 c 1
 746 543 862 331 1020 331 c 4
EndSplineSet
EndChar

StartChar: product
Encoding: 8719 8719 445
Width: 1380
VWidth: 1920
Flags: HW
LayerCount: 2
Fore
SplineSet
1159 1400 m 258
 1174 1400 1180 1393 1180 1381 c 258
 1180 16 l 258
 1180 4 1178 -3 1166 -3 c 262
 1164 -3 l 262
 1152 -3 1150 4 1150 16 c 258
 1150 1370 l 257
 230 1370 l 257
 230 16 l 258
 230 4 228 -3 216 -3 c 258
 214 -3 l 258
 202 -3 200 4 200 16 c 258
 200 1381 l 258
 200 1393 206 1400 221 1400 c 258
 1159 1400 l 258
EndSplineSet
EndChar

StartChar: uni2219
Encoding: 8729 8729 446
Width: 540
Flags: HW
LayerCount: 2
Fore
SplineSet
121 675 m 0
 121 763 182 825 270 825 c 0
 358 825 419 763 419 675 c 0
 419 587 363 525 275 525 c 0
 187 525 121 587 121 675 c 0
EndSplineSet
EndChar

StartChar: approxequal
Encoding: 8776 8776 447
Width: 1180
VWidth: 1920
Flags: HW
LayerCount: 2
Fore
SplineSet
402 429 m 256
 282 429 185 323 181 210 c 260
 180.639233424 199.808344223 176 195 166 195 c 262
 165 195 l 262
 154 195 150.54297228 199.843062653 151 212 c 260
 156 345 261 459 402 459 c 256
 581 459 627 202 779 202 c 256
 899 202 996 318 1000 420 c 256
 1000.39961594 430.190206431 1005 436 1016 436 c 258
 1017 436 l 258
 1028 436 1030.53073057 431.029892978 1030 419 c 256
 1024 283 919 172 779 172 c 256
 600 172 574 429 402 429 c 256
402 799 m 256
 282 799 185 693 181 580 c 256
 179 570 176 565 166 565 c 258
 165 565 l 258
 154 565 149 570 151 582 c 256
 156 715 261 829 402 829 c 256
 581 829 627 572 779 572 c 256
 899 572 996 688 1000 790 c 256
 1000.39961594 800.190206431 1004 806 1015 806 c 258
 1016 806 l 258
 1027 806 1030.53073057 801.029892978 1030 789 c 256
 1024 653 919 542 779 542 c 256
 600 542 574 799 402 799 c 256
EndSplineSet
EndChar

StartChar: notequal
Encoding: 8800 8800 448
Width: 1180
VWidth: 1920
Flags: HW
LayerCount: 2
Fore
SplineSet
1008 960 m 2
 1010 958 l 2
 1015 953 1015 949 1010 944 c 2
 186 40 l 2
 181 35 177 35 172 40 c 2
 170 42 l 6
 165 47 165 51 170 56 c 6
 994 960 l 2
 999 965 1003 965 1008 960 c 2
EndSplineSet
Refer: 83 61 N 1 0 0 1 0 0 2
EndChar

StartChar: lessequal
Encoding: 8804 8804 449
Width: 1010
VWidth: 1920
Flags: HW
LayerCount: 2
Fore
SplineSet
107.3 15.4 m 258
 107.3 19.6 l 258
 107.3 29.3 113 35 125.4 35 c 258
 884.6 35 l 258
 897 35 902.7 29.3 902.7 19.6 c 258
 902.7 15.4 l 258
 902.7 5.7 897 0 884.6 0 c 258
 125.4 0 l 258
 113 0 107.3 5.7 107.3 15.4 c 258
EndSplineSet
Refer: 84 60 N 1 0 0 1 0 150 2
EndChar

StartChar: greaterequal
Encoding: 8805 8805 450
Width: 1010
VWidth: 1920
Flags: HW
LayerCount: 2
Fore
SplineSet
107.3 15.4 m 258
 107.3 19.6 l 258
 107.3 29.3 113 35 125.4 35 c 258
 884.6 35 l 258
 897 35 902.7 29.3 902.7 19.6 c 258
 902.7 15.4 l 258
 902.7 5.7 897 0 884.6 0 c 258
 125.4 0 l 258
 113 0 107.3 5.7 107.3 15.4 c 258
EndSplineSet
Refer: 85 62 N 1 0 0 1 0 150 2
EndChar

StartChar: lozenge
Encoding: 9674 9674 451
Width: 950
Flags: HW
LayerCount: 2
Fore
SplineSet
481 40 m 2
 81 702 l 2
 76 710 76 714 81 722 c 2
 481 1382 l 2
 487 1391 487 1392 493 1382 c 2
 869 722 l 2
 873 714 873 710 869 702 c 2
 493 40 l 2
 488 30 487 31 481 40 c 2
481 124 m 1
 833 712 l 5
 481 1300 l 1
 117 712 l 1
 481 124 l 1
EndSplineSet
EndChar

StartChar: uniF8EA
Encoding: 63722 63722 452
Width: 1088
VWidth: 1920
Flags: HW
LayerCount: 2
Fore
SplineSet
78 1400 m 6
 464 1400 l 6
 466 1400 467 1398 467 1396 c 6
 467 1393 l 6
 467 1391 466 1389 464 1389 c 6
 276 1389 l 261
 276 900 l 6
 276 898 275 896 273 896 c 6
 269 896 l 6
 267 896 266 898 266 900 c 6
 266 1389 l 261
 78 1389 l 6
 76 1389 75 1391 75 1393 c 6
 75 1396 l 6
 75 1398 76 1400 78 1400 c 6
574 1378 m 261
 574 900 l 6
 574 898 572 896 570 896 c 6
 567 896 l 6
 565 896 563 898 563 900 c 6
 563 1396 l 6
 563 1398 565 1400 567 1400 c 6
 574 1400 l 6
 576 1400 578 1398 579 1396 c 6
 779 910 l 261
 962 1396 l 6
 963 1398 964 1400 966 1400 c 6
 974 1400 l 6
 976 1400 977 1398 977 1396 c 6
 977 900 l 6
 977 898 976 896 974 896 c 6
 970 896 l 6
 968 896 966 898 966 900 c 6
 966 1378 l 261
 788 900 l 6
 787 898 785 896 783 896 c 6
 776 896 l 6
 774 896 772 898 771 900 c 6
 574 1378 l 261
EndSplineSet
EndChar

StartChar: uniF8E8
Encoding: 63720 63720 453
Width: 986
Flags: HW
LayerCount: 2
Fore
SplineSet
349 1259 m 261
 349 1027 l 261
 522 1027 l 262
 589 1027 650 1061 650 1129 c 262
 650 1141 l 262
 650 1217 607 1259 522 1259 c 262
 349 1259 l 261
522 1270 m 262
 611 1270 660 1224 660 1141 c 262
 660 1132 l 262
 660 1056 607 1021 522 1021 c 261
 522 1025 l 261
 614 1025 657 1003 657 917 c 262
 657 884 l 262
 657 843 667 799 684 774 c 4
 687 770 687 769 687 768 c 6
 687 767 l 6
 687 766 686 766 684 766 c 6
 680 766 l 6
 678 766 677 766 675 769 c 4
 655 804 645 838 645 884 c 262
 645 917 l 262
 645 1003 600 1019 522 1019 c 262
 349 1019 l 261
 349 769 l 6
 349 767 347 766 345 766 c 6
 342 766 l 6
 340 766 338 767 338 769 c 6
 338 1266 l 6
 338 1268 340 1270 342 1270 c 6
 522 1270 l 262
911 1016 m 4
 911 786 722 599 492 599 c 4
 262 599 75 786 75 1016 c 4
 75 1246 262 1435 492 1435 c 4
 722 1435 911 1246 911 1016 c 4
893 1016 m 4
 893 1237 713 1417 492 1417 c 4
 271 1417 93 1237 93 1016 c 4
 93 795 271 617 492 617 c 4
 713 617 893 795 893 1016 c 4
EndSplineSet
EndChar

StartChar: uniF8E9
Encoding: 63721 63721 454
Width: 986
Flags: HW
LayerCount: 2
Fore
SplineSet
681 945 m 260
 678 856 607 753 492 753 c 260
 353 753 296 851 296 988 c 262
 296 1048 l 262
 296 1185 353 1282 492 1282 c 260
 535 1282 669 1270 671 1116 c 260
 671 1113 669 1112 667 1112 c 262
 664 1112 l 262
 662 1112 660 1113 660 1116 c 260
 659 1212 599 1271 496 1271 c 260
 360 1271 307 1178 307 1048 c 262
 307 988 l 262
 307 858 360 764 496 764 c 260
 581 764 665 843 671 945 c 260
 671 948 672 949 674 949 c 262
 678 949 l 262
 680 949 681 948 681 945 c 260
911 1016 m 4
 911 786 722 599 492 599 c 4
 262 599 75 786 75 1016 c 4
 75 1246 262 1435 492 1435 c 4
 722 1435 911 1246 911 1016 c 4
893 1016 m 4
 893 1237 713 1417 492 1417 c 4
 271 1417 93 1237 93 1016 c 4
 93 795 271 617 492 617 c 4
 713 617 893 795 893 1016 c 4
EndSplineSet
EndChar

StartChar: uni1E9E
Encoding: 7838 7838 457
Width: 1380
VWidth: 1920
Flags: HW
LayerCount: 2
Fore
SplineSet
240 1005 m 258
 240 1289 397 1434 687 1434 c 256
 954 1434 1104 1332 1202 1198 c 256
 1219 1176 1223 1167 1204 1146 c 258
 752 692 l 257
 921 643 1222 569 1222 348 c 256
 1222 124 1128 -35 858 -35 c 256
 752 -35 655 -8 607 16 c 256
 581.200775205 28.8996123973 572 33 572 41 c 262
 572 42 l 262
 572 56 586.931963202 58.8736010778 611 46 c 256
 654 23 769 -5 858 -5 c 256
 1114 -5 1192 151 1192 348 c 256
 1192 540 917 617 745 667 c 256
 716 677 712 686 733 710 c 258
 1190 1173 l 257
 1087 1305 965 1404 687 1404 c 256
 418 1404 275 1278 275 985 c 258
 275 16 l 258
 275 3 269 -3 258 -3 c 258
 257 -3 l 258
 246 -3 240 3 240 16 c 258
 240 1005 l 258
EndSplineSet
EndChar
